<?xml version="1.0" standalone="no"?>
<!DOCTYPE svg PUBLIC "-//W3C//DTD SVG 20010904//EN"
 "http://www.w3.org/TR/2001/REC-SVG-20010904/DTD/svg10.dtd">
<svg version="1.0" xmlns="http://www.w3.org/2000/svg"
 width="128.000000pt" height="128.000000pt" viewBox="0 0 128.000000 128.000000"
 preserveAspectRatio="xMidYMid meet">

<g transform="translate(0.000000,128.000000) scale(0.100000,-0.100000)"
fill="#201767" stroke="none">
<path d="M112 1270 c-18 -4 -45 -18 -59 -31 -53 -51 -53 -48 -53 -471 0 -433
0 -436 63 -482 27 -20 44 -21 288 -24 l259 -3 0 -99 0 -99 -117 -3 c-110 -3
-118 -4 -118 -23 0 -19 8 -20 269 -23 205 -2 271 1 277 10 18 29 -12 38 -132
38 l-119 0 0 100 0 99 258 3 c253 3 258 3 291 27 60 43 61 50 61 484 0 392 0
394 -22 427 -13 18 -36 43 -51 54 -28 21 -38 21 -545 23 -284 1 -532 -2 -550
-7z m1069 -60 c46 -25 49 -50 49 -370 l0 -300 -590 0 -590 0 0 300 c0 317 3
344 47 369 25 14 1057 15 1084 1z m47 -786 c-4 -43 -11 -61 -32 -82 l-26 -27
-530 0 -530 0 -26 27 c-21 21 -28 39 -32 82 l-4 56 592 0 592 0 -4 -56z"/>
<path d="M747 1164 c-4 -4 -7 -20 -7 -36 0 -25 -3 -28 -35 -28 -30 0 -35 -3
-35 -24 0 -18 -6 -25 -22 -28 l-23 -3 0 -225 0 -225 229 -3 c163 -2 233 1 243
9 11 9 13 42 11 153 l-3 141 -80 5 -80 5 -5 70 c-5 63 -7 70 -27 73 -17 3 -23
10 -23 28 0 22 -4 24 -49 24 -49 0 -50 1 -53 32 -3 31 -25 48 -41 32z m143
-206 c0 -33 -3 -39 -12 -30 -16 16 -180 16 -196 0 -9 -9 -12 -3 -12 30 l0 42
110 0 110 0 0 -42z m0 -85 c0 -25 -3 -33 -9 -25 -6 10 -34 13 -110 10 -95 -3
-101 -2 -101 17 0 19 6 20 105 17 70 -2 105 0 105 7 0 6 2 11 5 11 3 0 5 -17
5 -37z m170 -28 c0 -12 -13 -15 -60 -15 -47 0 -60 3 -60 15 0 12 13 15 60 15
47 0 60 -3 60 -15z m-170 -112 c0 -74 -3 -93 -14 -93 -11 0 -16 14 -18 48 l-3
47 -75 0 -75 0 -3 -47 c-2 -34 -7 -48 -18 -48 -11 0 -14 19 -14 93 l0 92 110
0 110 0 0 -92z m170 45 c0 -9 -19 -13 -60 -13 -41 0 -60 4 -60 13 0 8 19 12
60 12 41 0 60 -4 60 -12z m0 -63 c0 -6 -27 -10 -60 -10 -33 0 -60 4 -60 10 0
6 27 10 60 10 33 0 60 -4 60 -10z m-250 -50 c0 -21 -5 -25 -30 -25 -25 0 -30
4 -30 25 0 21 5 25 30 25 25 0 30 -4 30 -25z m250 -10 c0 -12 -13 -15 -60 -15
-77 0 -79 18 -2 23 31 2 58 4 60 5 1 1 2 -5 2 -13z"/>
<path d="M280 1079 c-116 -47 -138 -219 -36 -292 24 -17 45 -22 96 -22 80 0
123 26 152 93 58 131 -78 274 -212 221z m120 -54 c58 -30 76 -104 40 -163 -29
-48 -80 -67 -133 -50 -54 17 -82 57 -82 115 0 39 5 49 37 79 43 38 88 45 138
19z"/>
<path d="M360 954 c-28 -24 -34 -25 -56 -14 -19 11 -27 11 -36 2 -15 -15 20
-66 48 -69 27 -4 109 69 101 90 -9 23 -20 21 -57 -9z"/>
<path d="M182 717 c-26 -31 1 -38 159 -35 146 3 154 4 154 23 0 19 -8 20 -151
23 -115 2 -154 -1 -162 -11z"/>
<path d="M183 629 c-6 -6 -9 -18 -6 -25 4 -11 29 -14 103 -14 100 0 122 8 100
35 -15 18 -180 21 -197 4z"/>
</g>
</svg>
