<?xml version="1.0" standalone="no"?>
<!DOCTYPE svg PUBLIC "-//W3C//DTD SVG 20010904//EN"
 "http://www.w3.org/TR/2001/REC-SVG-20010904/DTD/svg10.dtd">
<svg version="1.0" xmlns="http://www.w3.org/2000/svg"
 width="100px" height="100px" viewBox="0 0 1200.000000 1200.000000"
 preserveAspectRatio="xMidYMid meet">

<g transform="translate(0.000000,1200.000000) scale(0.100000,-0.100000)"
fill="#000000" stroke="none">
<path d="M5742 9875 c-253 -39 -490 -131 -677 -263 -275 -194 -454 -482 -482
-774 -4 -45 -7 -757 -5 -1580 l2 -1498 1400 0 1400 0 -2 1568 -3 1567 -27 92
c-54 184 -133 317 -276 465 -202 209 -462 346 -779 409 -140 28 -415 35 -551
14z m218 -124 l0 -38 -91 -6 c-539 -39 -1000 -376 -1101 -804 -11 -48 -22 -94
-24 -100 -3 -12 -94 -20 -94 -9 0 27 34 168 55 226 122 339 453 615 870 723
130 34 346 62 378 49 4 -2 7 -20 7 -41z m323 15 c260 -49 508 -172 704 -350
62 -56 158 -180 207 -268 43 -77 92 -223 101 -301 l7 -58 -48 3 c-46 3 -49 5
-52 33 -11 103 -75 262 -153 376 -92 137 -279 291 -453 373 -154 73 -334 120
-508 132 l-98 7 0 37 c0 20 2 39 4 41 9 8 200 -9 289 -25z m-323 -91 c0 -3
-16 -11 -35 -19 -20 -9 -44 -30 -55 -49 -19 -33 -25 -35 -113 -51 -241 -44
-450 -150 -606 -307 -105 -106 -185 -245 -211 -366 -22 -103 -12 -93 -91 -93
l-72 0 7 49 c9 68 49 182 92 259 159 290 495 506 879 566 90 14 205 20 205 11z
m198 -5 c375 -47 704 -239 883 -514 64 -98 115 -226 125 -311 l7 -55 -71 0
-71 0 -6 38 c-31 184 -145 369 -309 498 -143 113 -355 206 -536 233 -41 7 -76
16 -78 21 -9 25 -49 64 -79 76 -18 8 -33 16 -33 19 0 8 81 6 168 -5z m-154
-71 c13 -7 30 -25 37 -41 10 -25 9 -33 -8 -56 -25 -33 -76 -41 -104 -16 -29
26 -25 78 7 103 31 24 35 25 68 10z m-157 -76 c3 -7 -25 -16 -69 -23 -384 -64
-694 -323 -764 -638 -14 -65 -19 -73 -38 -70 -26 4 -24 30 9 136 92 289 402
530 770 597 77 14 87 14 92 -2z m439 -18 c348 -87 620 -331 695 -623 24 -94
24 -92 -5 -92 -20 0 -24 6 -30 41 -50 315 -361 590 -749 664 -43 8 -81 15 -83
15 -2 0 -4 7 -4 15 0 18 39 14 176 -20z m-412 -49 c8 -14 31 -30 51 -37 l35
-13 -1 -256 c-1 -140 -3 -248 -6 -240 -37 128 -149 557 -146 563 9 16 52 6 67
-17z m270 16 c4 -7 -129 -518 -147 -562 -3 -8 -6 100 -6 240 l-1 256 35 13
c19 7 43 23 53 36 16 24 56 33 66 17z m-298 -282 c41 -150 73 -274 71 -276 -1
-1 -65 114 -141 257 -76 143 -136 262 -134 264 6 6 113 33 122 31 5 -1 42
-125 82 -276z m417 259 c26 -6 47 -17 45 -23 -5 -18 -270 -517 -273 -514 -2 2
30 127 71 278 41 151 74 276 74 278 0 2 8 1 18 -2 9 -3 39 -10 65 -17z m-581
-164 c154 -289 210 -399 196 -385 -26 26 -384 444 -392 458 -5 8 9 20 46 37
29 14 59 24 67 23 7 -2 45 -61 83 -133z m753 105 l46 -20 -183 -211 c-101
-116 -196 -226 -211 -243 l-28 -31 29 55 c16 30 80 151 142 268 126 238 109
223 205 182z m-798 -258 c234 -271 231 -267 153 -206 -36 28 -150 117 -255
199 -104 81 -190 151 -190 156 0 9 84 69 97 69 4 0 91 -98 195 -218z m926 188
c26 -16 47 -33 47 -38 0 -5 -87 -76 -192 -157 -106 -82 -222 -172 -258 -200
-76 -58 -86 -72 164 218 98 114 182 207 185 207 4 0 28 -13 54 -30z m-1000
-255 c135 -104 244 -191 243 -192 -2 -2 -546 284 -578 303 -8 5 4 21 33 46 24
21 47 37 51 35 3 -1 116 -87 251 -192z m1127 159 c22 -20 38 -40 35 -44 -4 -7
-550 -298 -579 -309 -6 -2 102 84 239 192 138 107 253 196 257 196 5 1 26 -15
48 -35z m127 -158 c-2 -5 -149 -58 -326 -117 -178 -60 -321 -105 -317 -102 3
4 135 75 293 158 l288 152 32 -41 c18 -23 31 -45 30 -50z m-1329 -62 c152 -81
281 -150 285 -154 4 -4 -135 40 -310 98 -175 57 -321 107 -326 111 -9 9 49 91
64 91 6 0 135 -66 287 -146z m-53 -78 c171 -58 306 -105 300 -105 -11 -1 -668
101 -673 104 -3 3 35 89 44 98 4 4 10 7 13 7 4 0 146 -47 316 -104z m1434 53
c13 -28 21 -52 19 -54 -4 -4 -661 -106 -673 -104 -12 1 605 208 621 209 6 0
21 -23 33 -51z m-1494 -135 c159 -25 292 -47 294 -50 2 -2 -141 -4 -318 -4
l-323 0 7 33 c12 58 16 67 34 67 9 0 147 -21 306 -46z m1529 38 c3 -5 8 -28
12 -50 l7 -42 -324 1 c-363 2 -363 1 1 58 264 42 296 46 304 33z m404 -179
l-3 -28 -1327 -3 -1328 -2 0 30 0 30 1331 0 1330 0 -3 -27z m-1660 -100 c-174
-2 -462 -2 -640 0 -178 1 -35 2 317 2 352 0 497 -1 323 -2z m1300 0 c-175 -2
-461 -2 -635 0 -175 1 -32 2 317 2 349 0 492 -1 318 -2z m-2291 -2065 c-1
-370 -2 -68 -2 672 0 740 1 1042 2 673 2 -370 2 -976 0 -1345z m1301 675 l-3
-1338 -630 0 -630 0 -3 1338 -2 1337 635 0 635 0 -2 -1337z m1302 -3 l0 -1340
-630 0 -630 0 0 1340 0 1340 630 0 630 0 0 -1340z m50 6 c0 -879 -3 -1337 -10
-1341 -7 -4 -10 443 -10 1334 0 887 3 1341 10 1341 7 0 10 -451 10 -1334z"/>
<path d="M4872 7595 l3 -765 398 -3 397 -2 0 768 0 767 -400 0 -400 0 2 -765z
m58 722 c0 -7 -7 -22 -15 -33 -14 -18 -14 -17 -15 14 0 22 5 32 15 32 8 0 15
-6 15 -13z m234 -21 c8 -19 24 -39 35 -46 21 -11 21 -11 -8 -35 -16 -14 -32
-36 -35 -50 -6 -22 -12 -25 -50 -25 -26 0 -47 5 -50 13 -5 10 -7 10 -12 0 -3
-8 -24 -13 -50 -13 -36 0 -44 3 -44 19 0 10 -12 31 -26 46 -21 23 -24 32 -15
44 6 9 21 31 32 49 l21 32 94 0 94 0 14 -34z m196 23 c0 -6 -13 -24 -29 -40
-22 -21 -39 -29 -66 -29 -27 0 -44 8 -66 29 -16 16 -29 34 -29 40 0 7 34 11
95 11 61 0 95 -4 95 -11z m220 -4 c0 -8 13 -29 29 -47 l29 -33 -29 -33 c-16
-18 -29 -39 -29 -47 0 -19 -85 -21 -94 -2 -5 10 -7 10 -12 0 -3 -8 -24 -13
-50 -13 -34 0 -44 4 -44 16 0 9 -15 31 -34 50 l-33 33 22 15 c12 8 28 28 35
45 l12 31 99 0 c81 0 99 -3 99 -15z m60 -15 c0 -34 -7 -38 -26 -12 -19 25 -17
42 6 42 16 0 20 -7 20 -30z m-339 -80 c14 0 59 -51 59 -66 0 -10 -14 -14 -45
-14 -35 0 -43 3 -39 15 4 8 1 15 -5 15 -6 0 -11 -7 -11 -15 0 -11 -12 -15 -45
-15 -49 0 -50 1 -34 33 18 33 69 60 97 51 8 -2 18 -4 23 -4z m336 -77 c-3 -2
-15 -3 -26 -1 l-21 3 22 35 23 35 3 -33 c2 -19 1 -36 -1 -39z m-704 17 c4 -15
0 -20 -14 -20 -15 0 -19 7 -19 31 0 26 3 29 14 20 8 -6 16 -21 19 -31z m20
-80 c10 -21 27 -42 37 -45 18 -6 16 -10 -15 -41 -19 -19 -35 -44 -35 -54 0
-13 -7 -20 -20 -20 -19 0 -20 7 -20 100 0 89 2 100 18 100 10 0 24 -16 35 -40z
m92 18 l8 -23 4 23 c4 19 11 22 49 22 24 0 44 -4 44 -9 0 -20 -52 -70 -80 -76
-46 -10 -110 33 -110 74 0 6 17 11 39 11 31 0 40 -4 46 -22z m215 5 c1 -17 1
-17 11 0 7 11 22 17 49 17 36 0 41 -4 54 -34 8 -18 24 -41 37 -49 l23 -16 -26
-20 c-14 -11 -31 -34 -38 -51 -11 -27 -17 -30 -56 -30 -35 0 -44 4 -44 18 -1
16 -1 16 -11 0 -7 -12 -22 -18 -49 -18 -33 0 -41 4 -46 24 -3 13 -19 36 -35
52 -29 27 -29 27 -8 42 12 8 27 30 35 48 13 31 18 34 59 34 36 0 45 -3 45 -17z
m213 -5 l4 -23 8 23 c6 18 15 22 46 22 46 0 50 -16 15 -57 -19 -22 -32 -28
-66 -28 -35 0 -47 6 -71 33 -16 18 -29 37 -29 42 0 6 20 10 44 10 38 0 45 -3
49 -22z m167 -78 c0 -93 -1 -100 -20 -100 -13 0 -25 11 -34 34 -8 18 -24 41
-37 49 l-23 16 27 25 c14 13 29 36 33 50 4 19 13 26 30 26 24 0 24 -1 24 -100z
m-540 -25 c28 -15 50 -42 50 -64 0 -6 -20 -11 -44 -11 -38 0 -45 3 -49 23 l-4
22 -8 -22 c-6 -19 -15 -23 -46 -23 -32 0 -39 4 -39 19 0 26 55 71 86 71 14 0
38 -7 54 -15z m438 -10 c16 -14 32 -34 35 -45 5 -18 0 -20 -39 -20 -37 0 -44
3 -44 20 0 11 -4 20 -10 20 -5 0 -10 -9 -10 -20 0 -17 -7 -20 -45 -20 -49 0
-51 3 -31 39 30 53 97 66 144 26z m-608 -98 c0 -7 -7 -22 -15 -33 -14 -18 -14
-17 -15 14 0 22 5 32 15 32 8 0 15 -6 15 -13z m114 1 c5 -10 7 -10 12 0 3 7
24 12 49 12 38 0 44 -3 55 -31 7 -17 24 -37 36 -46 l24 -15 -24 -19 c-13 -10
-29 -32 -36 -49 -11 -27 -17 -30 -55 -30 -25 0 -46 5 -49 13 -5 10 -7 10 -12
0 -3 -8 -24 -13 -50 -13 -36 0 -44 3 -44 19 0 10 -11 30 -25 45 -14 15 -25 30
-25 33 0 3 11 18 25 35 14 16 25 36 25 44 0 18 86 20 94 2z m211 3 c-3 -5 -1
-12 5 -16 5 -3 10 1 10 9 0 12 11 16 45 16 53 0 56 -11 16 -51 -22 -21 -39
-29 -66 -29 -27 0 -44 8 -66 29 -40 41 -37 51 17 51 25 0 43 -4 39 -9z m219
-3 c5 -10 7 -10 12 0 9 18 94 16 94 -3 0 -8 13 -29 29 -47 l29 -33 -29 -33
c-16 -18 -29 -39 -29 -47 0 -19 -85 -21 -94 -2 -5 10 -7 10 -12 0 -3 -8 -24
-13 -50 -13 -34 0 -44 4 -44 16 0 9 -15 31 -34 50 l-33 33 22 15 c12 8 28 28
35 45 11 28 17 31 55 31 25 0 46 -5 49 -12z m166 -18 c0 -34 -7 -38 -26 -12
-19 25 -17 42 6 42 16 0 20 -7 20 -30z m-306 -106 c39 -40 34 -54 -19 -54 -35
0 -43 3 -39 15 4 8 1 15 -5 15 -6 0 -11 -7 -11 -15 0 -11 -12 -15 -45 -15 -25
0 -45 4 -45 9 0 5 12 23 26 40 35 42 98 44 138 5z m303 -51 c-3 -2 -15 -3 -26
-1 l-21 3 22 35 23 35 3 -33 c2 -19 1 -36 -1 -39z m-704 17 c4 -15 0 -20 -14
-20 -15 0 -19 7 -19 31 0 26 3 29 14 20 8 -6 16 -21 19 -31z m16 -76 c7 -19
23 -40 36 -46 l23 -10 -34 -35 c-19 -18 -34 -43 -34 -53 0 -13 -7 -20 -20 -20
-19 0 -20 7 -20 100 0 90 2 100 18 100 12 0 23 -13 31 -36z m96 14 l8 -23 4
23 c4 19 11 22 49 22 24 0 44 -4 44 -9 0 -20 -52 -70 -80 -76 -46 -10 -110 33
-110 74 0 6 17 11 39 11 31 0 40 -4 46 -22z m215 5 c1 -17 1 -17 11 0 7 11 22
17 49 17 36 0 41 -4 54 -34 8 -18 24 -41 37 -49 l23 -16 -26 -20 c-14 -11 -31
-34 -38 -51 -11 -27 -17 -30 -56 -30 -35 0 -44 4 -44 18 -1 16 -1 16 -11 0 -7
-12 -22 -18 -49 -18 -34 0 -41 4 -46 25 -3 14 -20 37 -37 51 l-30 25 23 16
c12 9 28 31 36 49 13 31 18 34 59 34 36 0 45 -3 45 -17z m213 -5 l4 -23 8 23
c6 18 15 22 46 22 46 0 50 -16 15 -57 -19 -22 -32 -28 -66 -28 -35 0 -47 6
-71 33 -16 18 -29 37 -29 42 0 6 20 10 44 10 38 0 45 -3 49 -22z m167 -78 l0
-100 -25 0 c-19 0 -25 5 -25 21 0 11 -14 34 -30 51 l-31 30 25 23 c14 13 28
35 32 49 4 19 13 26 30 26 24 0 24 -1 24 -100z m-540 -25 c28 -15 50 -42 50
-64 0 -6 -20 -11 -44 -11 -38 0 -45 3 -49 23 l-4 22 -8 -22 c-6 -19 -15 -23
-46 -23 -32 0 -39 4 -39 19 0 26 55 71 86 71 14 0 38 -7 54 -15z m438 -10 c16
-14 32 -34 35 -45 5 -18 0 -20 -39 -20 -37 0 -44 3 -44 20 0 11 -4 20 -10 20
-5 0 -10 -9 -10 -20 0 -17 -7 -20 -45 -20 -49 0 -51 3 -31 39 30 53 97 66 144
26z m-608 -98 c0 -7 -7 -22 -15 -33 -14 -18 -14 -17 -15 14 0 22 5 32 15 32 8
0 15 -6 15 -13z m114 1 c5 -10 7 -10 12 0 3 7 24 12 49 12 38 0 44 -3 55 -31
7 -17 24 -37 36 -46 l24 -15 -24 -19 c-13 -10 -29 -32 -36 -49 -11 -27 -17
-30 -55 -30 -25 0 -46 5 -49 13 -5 10 -7 10 -12 0 -3 -8 -24 -13 -50 -13 -37
0 -44 3 -44 19 0 10 -11 29 -25 42 -31 30 -31 34 0 71 14 16 25 36 25 44 0 18
86 20 94 2z m211 3 c-3 -5 -1 -12 5 -16 5 -3 10 1 10 9 0 12 11 16 45 16 53 0
56 -11 16 -51 -22 -21 -39 -29 -66 -29 -27 0 -44 8 -66 29 -40 41 -37 51 17
51 25 0 43 -4 39 -9z m219 -3 c5 -10 7 -10 12 0 9 18 94 16 94 -3 0 -8 13 -29
29 -47 l29 -33 -29 -33 c-16 -18 -29 -39 -29 -47 0 -19 -85 -21 -94 -2 -5 10
-7 10 -12 0 -3 -8 -24 -13 -50 -13 -34 0 -44 4 -44 16 0 9 -15 31 -34 50 l-33
33 22 15 c12 8 28 28 35 45 11 28 17 31 55 31 25 0 46 -5 49 -12z m166 -18 c0
-34 -14 -39 -30 -11 -15 29 -12 41 10 41 16 0 20 -7 20 -30z m-306 -106 c39
-40 34 -54 -20 -54 -25 0 -43 4 -39 9 3 5 1 12 -5 16 -5 3 -10 -1 -10 -9 0
-12 -11 -16 -45 -16 -25 0 -45 4 -45 9 0 5 12 23 26 40 35 42 98 44 138 5z
m306 -18 c0 -25 -5 -35 -20 -39 -29 -7 -32 5 -10 41 25 41 30 40 30 -2z m-707
-16 c4 -15 0 -20 -14 -20 -15 0 -19 7 -19 31 0 26 3 29 14 20 8 -6 16 -21 19
-31z m16 -76 c7 -19 23 -40 36 -46 l23 -10 -34 -35 c-19 -18 -34 -43 -34 -53
0 -13 -7 -20 -20 -20 -19 0 -20 7 -20 100 0 90 2 100 18 100 12 0 23 -13 31
-36z m96 14 l8 -23 4 23 c4 19 11 22 49 22 49 0 50 0 29 -39 -29 -57 -115 -65
-155 -14 -31 39 -26 53 19 53 31 0 40 -4 46 -22z m213 6 c8 -15 10 -15 15 0 4
11 19 16 47 16 36 0 41 -3 54 -34 8 -18 24 -41 37 -49 l23 -16 -26 -20 c-14
-11 -31 -34 -38 -51 -11 -27 -17 -30 -56 -30 -35 0 -44 4 -44 18 -1 16 -1 16
-11 0 -7 -12 -22 -18 -49 -18 -34 0 -41 4 -46 25 -3 14 -20 37 -37 51 l-30 25
23 16 c12 9 28 31 36 49 13 30 18 34 54 34 25 0 42 -6 48 -16z m215 -6 l4 -23
8 23 c6 18 15 22 46 22 46 0 50 -16 15 -57 -19 -22 -32 -28 -66 -28 -35 0 -47
6 -71 33 -16 18 -29 37 -29 42 0 6 20 10 44 10 38 0 45 -3 49 -22z m167 -78
l0 -100 -25 0 c-19 0 -25 5 -25 21 0 11 -14 34 -30 51 l-31 30 25 23 c14 13
28 35 32 49 4 19 13 26 30 26 24 0 24 -1 24 -100z m-532 -30 c17 -11 32 -24
32 -29 0 -5 3 -16 6 -25 5 -13 -2 -16 -39 -16 -39 0 -46 3 -50 23 l-4 22 -8
-22 c-6 -19 -15 -23 -46 -23 -48 0 -51 19 -10 61 35 35 72 37 119 9z m430 -5
c16 -14 32 -34 35 -45 5 -18 0 -20 -39 -20 -37 0 -44 3 -44 20 0 11 -4 20 -10
20 -5 0 -10 -9 -10 -20 0 -17 -7 -20 -45 -20 -49 0 -51 3 -31 39 30 53 97 66
144 26z m-608 -98 c0 -7 -7 -22 -15 -33 -14 -18 -14 -17 -15 14 0 22 5 32 15
32 8 0 15 -6 15 -13z m114 1 c5 -10 7 -10 12 0 3 7 24 12 49 12 38 0 44 -3 55
-31 7 -17 23 -37 35 -45 l23 -15 -27 -27 c-14 -15 -30 -35 -36 -45 -8 -13 -28
-17 -104 -18 -84 -2 -95 0 -102 17 -3 10 -16 28 -28 38 -27 24 -26 32 4 68 14
16 25 36 25 44 0 18 86 20 94 2z m211 3 c-3 -5 -1 -12 5 -16 5 -3 10 1 10 9 0
12 11 16 45 16 53 0 56 -11 16 -51 -22 -21 -39 -29 -66 -29 -27 0 -44 8 -66
29 -40 41 -37 51 17 51 25 0 43 -4 39 -9z m219 -3 c5 -10 7 -10 12 0 9 18 94
16 94 -3 0 -8 13 -30 30 -48 27 -32 29 -36 13 -48 -9 -8 -24 -27 -34 -42 -17
-28 -19 -29 -109 -29 -91 0 -92 0 -110 30 -10 16 -28 36 -39 44 l-22 15 24 16
c13 8 30 29 37 46 11 28 17 31 55 31 25 0 46 -5 49 -12z m166 -25 l-1 -38 -19
24 c-26 30 -25 51 0 51 17 0 20 -7 20 -37z m-306 -99 c14 -15 26 -32 26 -38 0
-10 -60 -11 -164 -3 l-29 2 27 33 c23 27 35 32 71 32 32 0 48 -6 69 -26z m306
-13 c0 -20 -6 -30 -20 -34 -24 -6 -26 10 -4 41 20 29 24 28 24 -7z m-710 -28
c0 -7 -6 -10 -15 -7 -8 4 -15 18 -15 33 1 25 1 25 15 7 8 -11 15 -26 15 -33z"/>
<path d="M5010 8259 c-14 -26 11 -69 40 -69 20 0 50 25 50 41 0 47 -69 69 -90
28z"/>
<path d="M5440 8265 c-19 -22 -4 -64 25 -71 31 -8 55 10 55 40 0 43 -53 63
-80 31z"/>
<path d="M5238 8059 c-30 -17 -21 -69 13 -81 44 -17 81 60 40 82 -24 12 -31
12 -53 -1z"/>
<path d="M5010 7829 c-14 -26 11 -69 40 -69 20 0 50 25 50 41 0 47 -69 69 -90
28z"/>
<path d="M5440 7834 c-10 -11 -11 -23 -4 -42 17 -48 84 -38 84 12 0 43 -53 63
-80 30z"/>
<path d="M5238 7629 c-22 -12 -23 -52 -2 -73 19 -20 24 -20 52 0 26 18 28 46
6 68 -18 18 -32 20 -56 5z"/>
<path d="M5016 7404 c-20 -20 -20 -27 2 -54 36 -45 99 -1 72 50 -13 24 -52 26
-74 4z"/>
<path d="M5442 7408 c-7 -7 -12 -21 -12 -33 0 -12 5 -26 12 -33 7 -7 21 -12
33 -12 12 0 26 5 33 12 7 7 12 21 12 33 0 12 -5 26 -12 33 -7 7 -21 12 -33 12
-12 0 -26 -5 -33 -12z"/>
<path d="M5238 7199 c-28 -16 -23 -67 7 -81 46 -21 86 40 49 76 -18 18 -32 20
-56 5z"/>
<path d="M5024 6982 c-34 -23 -12 -82 32 -82 32 0 51 38 35 69 -12 21 -46 28
-67 13z"/>
<path d="M5442 6978 c-7 -7 -12 -21 -12 -33 0 -12 5 -26 12 -33 7 -7 21 -12
33 -12 12 0 26 5 33 12 7 7 12 21 12 33 0 12 -5 26 -12 33 -7 7 -21 12 -33 12
-12 0 -26 -5 -33 -12z"/>
<path d="M5765 7025 c-14 -13 -25 -36 -25 -50 0 -33 41 -75 73 -75 41 0 71 32
71 75 0 69 -71 99 -119 50z m70 -50 c0 -23 -34 -33 -45 -14 -13 20 1 40 24 37
13 -2 21 -10 21 -23z"/>
<path d="M5033 6758 c-44 -21 -52 -88 -15 -130 14 -16 39 -18 253 -18 l238 0
20 26 c28 36 27 79 -4 109 l-24 25 -223 -1 c-134 0 -232 -5 -245 -11z m471
-34 c19 -18 21 -55 4 -72 -9 -9 -76 -12 -240 -12 l-228 0 -12 25 c-9 19 -8 29
6 50 l16 25 220 0 c185 0 221 -2 234 -16z"/>
<path d="M4870 6265 l0 -285 400 0 400 0 0 285 0 285 -400 0 -400 0 0 -285z
m760 5 l0 -250 -360 0 -360 0 0 250 0 250 360 0 360 0 0 -250z"/>
<path d="M6295 8348 c-3 -7 -4 -352 -3 -766 l3 -752 400 0 400 0 0 762 0 763
-398 3 c-313 2 -399 0 -402 -10z m65 -24 c0 -13 -21 -44 -30 -44 -11 0 -14 33
-3 43 8 8 33 9 33 1z m224 -22 c8 -15 23 -35 35 -46 l20 -18 -29 -30 c-17 -16
-30 -38 -30 -49 0 -16 -7 -19 -50 -19 -41 0 -50 3 -51 18 -1 16 -2 16 -6 0 -3
-14 -15 -18 -48 -18 -38 0 -44 3 -55 29 -6 16 -20 37 -31 47 -19 17 -19 18 0
38 11 12 24 33 30 49 10 27 11 27 105 27 94 0 96 0 110 -28z m196 13 c0 -29
-50 -65 -90 -65 -40 0 -90 36 -90 65 0 12 15 15 90 15 75 0 90 -3 90 -15z
m234 -19 c8 -19 24 -40 36 -46 l21 -11 -24 -19 c-13 -11 -30 -33 -37 -50 -11
-27 -17 -30 -55 -30 -25 0 -46 5 -49 13 -5 10 -7 10 -12 0 -3 -8 -24 -13 -50
-13 -37 0 -44 3 -44 19 0 11 -13 33 -30 49 l-29 30 20 18 c12 11 27 31 35 46
14 28 16 28 109 28 l95 0 14 -34z m54 2 c4 -34 -11 -36 -32 -6 -22 31 -20 40
7 36 16 -2 23 -11 25 -30z m-319 -97 c13 -9 28 -27 32 -39 8 -21 6 -22 -36
-22 -33 0 -45 4 -45 15 0 8 -4 15 -10 15 -5 0 -10 -7 -10 -15 0 -11 -12 -15
-45 -15 -38 0 -43 3 -38 18 10 28 26 44 58 58 33 15 58 11 94 -15z m321 -26
c0 -31 -3 -35 -25 -35 -14 0 -25 5 -25 12 0 10 38 58 47 58 2 0 3 -16 3 -35z
m-724 8 c19 -26 17 -43 -6 -43 -16 0 -20 7 -20 30 0 34 7 38 26 13z m24 -93
c7 -17 24 -39 37 -50 l25 -20 -30 -25 c-16 -14 -33 -37 -36 -51 -5 -17 -12
-24 -24 -22 -14 3 -17 17 -20 87 -2 47 -1 90 2 98 9 23 33 14 46 -17z m98 8
l5 -22 8 22 c7 18 16 22 49 22 22 0 40 -5 40 -11 0 -41 -64 -84 -110 -74 -28
6 -80 56 -80 76 0 5 18 9 41 9 34 0 42 -4 47 -22z m212 7 c0 -8 5 -15 10 -15
6 0 10 7 10 15 0 11 12 15 44 15 38 0 45 -3 50 -24 3 -14 19 -35 34 -48 l28
-23 -33 -33 c-18 -18 -33 -42 -33 -52 0 -17 -7 -20 -45 -20 -33 0 -45 4 -45
15 0 8 -4 15 -10 15 -5 0 -10 -7 -10 -15 0 -11 -12 -15 -45 -15 -38 0 -45 3
-45 20 0 10 -15 34 -33 52 l-33 33 28 23 c15 13 31 34 34 48 5 21 12 24 50 24
32 0 44 -4 44 -15z m215 -7 l8 -23 4 23 c4 19 11 22 49 22 24 0 44 -4 44 -9 0
-20 -52 -70 -80 -76 -46 -10 -110 33 -110 74 0 6 17 11 39 11 31 0 40 -4 46
-22z m173 -80 l3 -98 -25 0 c-19 0 -27 7 -32 25 -3 14 -20 37 -37 51 l-30 25
23 16 c12 9 29 31 36 50 12 26 20 34 37 31 21 -3 22 -9 25 -100z m-529 -34
c17 -14 31 -34 31 -45 0 -15 -7 -19 -39 -19 -31 0 -40 4 -46 23 l-8 22 -4 -22
c-4 -20 -11 -23 -49 -23 -24 0 -44 5 -44 11 0 37 53 78 102 79 14 0 40 -12 57
-26z m411 11 c28 -15 50 -42 50 -64 0 -6 -20 -11 -44 -11 -38 0 -45 3 -49 23
l-4 22 -8 -22 c-6 -19 -15 -23 -46 -23 -32 0 -39 4 -39 19 0 26 55 71 86 71
14 0 38 -7 54 -15z m-590 -104 c0 -5 -9 -19 -20 -32 l-19 -24 -1 33 c0 25 4
32 20 32 11 0 20 -4 20 -9z m114 -3 c5 -10 7 -10 12 0 9 18 94 16 94 -3 0 -8
13 -29 29 -47 l29 -32 -29 -29 c-16 -16 -29 -37 -29 -48 0 -16 -7 -19 -50 -19
-33 0 -50 4 -51 13 0 10 -2 10 -6 0 -3 -8 -23 -13 -48 -13 -38 0 -44 3 -55 29
-6 16 -20 37 -31 47 -18 16 -18 17 6 45 13 16 26 38 30 49 5 16 15 20 50 20
25 0 46 -5 49 -12z m206 -3 c0 -8 5 -15 10 -15 6 0 10 7 10 15 0 11 11 15 40
15 48 0 53 -19 14 -55 -48 -44 -122 -28 -153 33 -11 21 -10 22 34 22 33 0 45
-4 45 -15z m214 3 c5 -10 7 -10 12 0 3 7 24 12 49 12 38 0 44 -3 55 -31 7 -17
24 -37 36 -46 l24 -15 -24 -19 c-13 -10 -29 -32 -36 -49 -11 -27 -17 -30 -55
-30 -25 0 -46 5 -49 13 -5 10 -7 10 -12 0 -3 -8 -24 -13 -50 -13 -37 0 -44 3
-44 19 0 11 -13 32 -29 48 l-29 29 29 32 c16 18 29 39 29 47 0 19 85 21 94 3z
m176 -18 c0 -36 -13 -38 -34 -8 -22 31 -20 38 9 38 21 0 25 -5 25 -30z m-318
-100 c14 -11 28 -29 31 -40 5 -18 0 -20 -39 -20 -32 0 -44 4 -44 15 0 8 -4 15
-10 15 -5 0 -10 -7 -10 -15 0 -11 -12 -15 -44 -15 -39 0 -44 2 -39 20 9 32 52
60 93 60 22 0 48 -8 62 -20z m318 -25 c0 -31 -3 -35 -25 -35 -14 0 -25 4 -25
9 0 9 39 61 46 61 2 0 4 -16 4 -35z m-724 8 c19 -26 17 -43 -6 -43 -16 0 -20
7 -20 30 0 34 7 38 26 13z m24 -93 c7 -17 24 -39 37 -50 l25 -20 -30 -25 c-16
-14 -33 -36 -36 -50 -4 -16 -13 -25 -26 -25 -19 0 -20 7 -20 93 0 52 3 97 7
100 14 15 31 6 43 -23z m98 8 l5 -22 8 22 c7 18 16 22 49 22 29 0 40 -4 40
-15 0 -22 -43 -63 -73 -70 -34 -9 -91 19 -106 51 -15 35 -16 34 30 34 34 0 42
-4 47 -22z m212 7 c0 -8 5 -15 10 -15 6 0 10 7 10 15 0 11 11 15 43 15 39 0
43 -3 60 -40 10 -21 27 -42 37 -45 18 -6 16 -10 -15 -41 -19 -19 -35 -44 -35
-54 0 -17 -7 -20 -45 -20 -33 0 -45 4 -45 15 0 8 -4 15 -10 15 -5 0 -10 -7
-10 -15 0 -11 -12 -15 -45 -15 -38 0 -45 3 -45 20 0 10 -16 35 -35 54 -31 31
-33 35 -15 41 10 3 27 24 37 45 17 37 21 40 61 40 31 0 42 -4 42 -15z m215 -7
l8 -23 4 23 c4 19 11 22 49 22 24 0 44 -4 44 -9 0 -20 -52 -70 -80 -76 -46
-10 -110 33 -110 74 0 6 17 11 39 11 31 0 40 -4 46 -22z m173 -80 l3 -98 -25
0 c-19 0 -27 7 -32 25 -3 14 -20 37 -37 51 l-30 25 23 16 c12 9 29 31 36 50
12 26 20 34 37 31 21 -3 22 -9 25 -100z m-529 -34 c17 -14 31 -34 31 -45 0
-15 -7 -19 -39 -19 -31 0 -40 4 -46 23 l-8 22 -4 -22 c-4 -20 -11 -23 -49 -23
-24 0 -44 5 -44 11 0 37 53 78 102 79 14 0 40 -12 57 -26z m411 11 c28 -15 50
-42 50 -64 0 -6 -20 -11 -44 -11 -38 0 -45 3 -49 23 l-4 22 -8 -22 c-6 -19
-15 -23 -46 -23 -32 0 -39 4 -39 19 0 26 55 71 86 71 14 0 38 -7 54 -15z
m-590 -104 c0 -5 -9 -19 -20 -32 l-19 -24 -1 33 c0 25 4 32 20 32 11 0 20 -4
20 -9z m114 -3 c5 -10 7 -10 12 0 9 18 94 16 94 -3 0 -8 13 -29 29 -47 l29
-32 -29 -29 c-16 -16 -29 -37 -29 -48 0 -16 -7 -19 -50 -19 -33 0 -50 4 -51
13 0 10 -2 10 -6 0 -3 -8 -23 -13 -48 -13 -38 0 -44 3 -55 29 -6 16 -20 37
-31 47 -18 16 -18 17 6 45 13 16 26 38 30 49 5 16 15 20 50 20 25 0 46 -5 49
-12z m206 -3 c0 -8 5 -15 10 -15 6 0 10 7 10 15 0 11 11 15 40 15 48 0 53 -18
15 -55 -17 -17 -35 -25 -60 -25 -47 0 -71 14 -90 50 l-16 30 46 0 c33 0 45 -4
45 -15z m214 3 c5 -10 7 -10 12 0 3 7 24 12 49 12 38 0 44 -3 55 -31 7 -17 24
-37 36 -46 l24 -15 -24 -19 c-13 -10 -29 -32 -36 -49 -11 -27 -17 -30 -55 -30
-25 0 -46 5 -49 13 -5 10 -7 10 -12 0 -3 -8 -24 -13 -50 -13 -37 0 -44 3 -44
19 0 11 -13 32 -29 48 l-29 29 29 32 c16 18 29 39 29 47 0 19 85 21 94 3z
m176 -18 c0 -36 -13 -38 -34 -8 -22 31 -20 38 9 38 21 0 25 -5 25 -30z m-318
-100 c14 -11 28 -29 31 -40 5 -18 0 -20 -39 -20 -32 0 -44 4 -44 15 0 8 -4 15
-10 15 -5 0 -10 -7 -10 -15 0 -11 -12 -15 -44 -15 -39 0 -44 2 -39 20 9 32 52
60 93 60 22 0 48 -8 62 -20z m314 -55 c-5 -14 -46 -9 -46 5 0 4 10 20 23 36
l22 29 3 -28 c2 -16 1 -35 -2 -42z m-717 28 c9 -21 9 -28 -1 -34 -18 -12 -28
-1 -28 32 0 36 13 37 29 2z m21 -83 c7 -17 24 -39 37 -50 l25 -20 -30 -25
c-16 -14 -33 -36 -36 -50 -4 -16 -13 -25 -26 -25 -19 0 -20 7 -20 93 0 52 3
97 7 100 14 15 31 6 43 -23z m98 8 l5 -22 8 22 c7 18 16 22 49 22 46 0 51 -13
20 -53 -40 -51 -126 -43 -155 14 -20 39 -20 39 26 39 34 0 42 -4 47 -22z m212
7 c0 -8 5 -15 10 -15 6 0 10 7 10 15 0 11 11 15 43 15 40 0 44 -2 56 -35 7
-19 24 -41 38 -48 l25 -14 -25 -16 c-14 -9 -31 -32 -38 -52 -12 -33 -16 -35
-56 -35 -32 0 -43 4 -43 15 0 8 -4 15 -10 15 -5 0 -10 -7 -10 -15 0 -11 -11
-15 -43 -15 -40 0 -44 2 -56 35 -7 20 -24 43 -38 52 l-25 16 25 14 c14 7 31
29 38 48 12 33 16 35 56 35 32 0 43 -4 43 -15z m215 -7 l8 -23 4 23 c4 19 11
22 49 22 49 0 48 0 33 -33 -27 -60 -118 -72 -159 -20 -31 39 -26 53 19 53 31
0 40 -4 46 -22z m173 -80 l3 -98 -25 0 c-19 0 -27 7 -32 25 -3 14 -20 37 -37
51 l-30 25 23 16 c12 9 29 31 36 50 12 26 20 34 37 31 21 -3 22 -9 25 -100z
m-529 -34 c17 -14 31 -34 31 -45 0 -15 -7 -19 -39 -19 -31 0 -40 4 -46 23 l-8
22 -4 -22 c-4 -20 -11 -23 -49 -23 -48 0 -55 11 -26 46 40 50 95 57 141 18z
m404 15 c26 -13 56 -49 57 -66 0 -9 -15 -13 -44 -13 -38 0 -45 3 -49 23 l-4
22 -8 -22 c-6 -19 -15 -23 -46 -23 -32 0 -39 4 -39 19 0 26 55 71 86 71 14 0
35 -5 47 -11z m-583 -108 c0 -5 -9 -19 -20 -32 l-19 -24 -1 33 c0 25 4 32 20
32 11 0 20 -4 20 -9z m114 -3 c5 -10 7 -10 12 0 9 18 94 16 94 -3 0 -8 14 -30
30 -49 30 -34 30 -35 11 -48 -11 -8 -27 -27 -35 -43 -15 -28 -15 -28 -108 -26
-73 1 -95 5 -103 18 -5 8 -20 28 -32 43 -22 27 -22 28 -4 44 11 10 25 31 31
47 11 26 17 29 55 29 25 0 46 -5 49 -12z m206 -3 c0 -8 5 -15 10 -15 6 0 10 7
10 15 0 11 11 15 40 15 48 0 53 -18 15 -55 -17 -17 -35 -25 -60 -25 -47 0 -71
14 -90 50 l-16 30 46 0 c33 0 45 -4 45 -15z m214 3 c5 -10 7 -10 12 0 3 7 24
12 49 12 38 0 44 -3 55 -31 7 -17 24 -37 36 -46 l24 -15 -28 -27 c-15 -15 -31
-34 -37 -43 -8 -14 -28 -18 -103 -19 -93 -2 -93 -2 -108 26 -8 16 -24 35 -35
43 -19 13 -19 14 11 48 16 19 30 41 30 49 0 19 85 21 94 3z m176 -18 c0 -36
-13 -38 -34 -8 -22 31 -20 38 9 38 21 0 25 -5 25 -30z m-316 -101 c14 -11 26
-28 26 -37 0 -15 -12 -17 -90 -17 -99 0 -109 7 -65 50 31 32 91 34 129 4z
m309 -49 c-4 -4 -16 -5 -26 -1 -17 6 -17 9 5 36 l23 30 3 -29 c2 -16 0 -32 -5
-36z m-715 -1 c-18 -11 -28 -1 -28 29 l1 27 20 -24 c15 -18 17 -26 7 -32z"/>
<path d="M6442 8268 c-7 -7 -12 -21 -12 -33 0 -12 5 -26 12 -33 7 -7 21 -12
33 -12 12 0 26 5 33 12 7 7 12 21 12 33 0 12 -5 26 -12 33 -7 7 -21 12 -33 12
-12 0 -26 -5 -33 -12z"/>
<path d="M6860 8259 c-14 -26 11 -69 40 -69 20 0 50 25 50 41 0 47 -69 69 -90
28z"/>
<path d="M6657 8052 c-24 -26 -21 -49 7 -67 45 -30 91 16 61 61 -19 29 -46 31
-68 6z"/>
<path d="M6442 7838 c-7 -7 -12 -21 -12 -33 0 -12 5 -26 12 -33 7 -7 21 -12
33 -12 12 0 26 5 33 12 7 7 12 21 12 33 0 12 -5 26 -12 33 -7 7 -21 12 -33 12
-12 0 -26 -5 -33 -12z"/>
<path d="M6860 7829 c-14 -26 11 -69 40 -69 20 0 50 25 50 41 0 47 -69 69 -90
28z"/>
<path d="M6657 7622 c-24 -26 -21 -49 7 -67 45 -30 91 16 61 61 -19 29 -46 31
-68 6z"/>
<path d="M6442 7408 c-7 -7 -12 -21 -12 -33 0 -12 5 -26 12 -33 7 -7 21 -12
33 -12 12 0 26 5 33 12 7 7 12 21 12 33 0 12 -5 26 -12 33 -7 7 -21 12 -33 12
-12 0 -26 -5 -33 -12z"/>
<path d="M6866 7404 c-20 -20 -20 -27 2 -54 36 -45 99 -1 72 50 -13 24 -52 26
-74 4z"/>
<path d="M6657 7192 c-10 -10 -17 -26 -17 -35 0 -15 35 -47 52 -47 11 0 48 38
48 50 0 15 -38 50 -53 50 -8 0 -21 -8 -30 -18z"/>
<path d="M6442 6978 c-7 -7 -12 -21 -12 -33 0 -12 5 -26 12 -33 7 -7 21 -12
33 -12 12 0 26 5 33 12 7 7 12 21 12 33 0 12 -5 26 -12 33 -7 7 -21 12 -33 12
-12 0 -26 -5 -33 -12z"/>
<path d="M6866 6974 c-20 -19 -20 -24 0 -52 21 -30 61 -29 75 2 23 50 -36 90
-75 50z"/>
<path d="M6085 7025 c-14 -13 -25 -36 -25 -50 0 -14 11 -37 25 -50 13 -14 36
-25 50 -25 14 0 37 11 50 25 14 13 25 36 25 50 0 14 -11 37 -25 50 -13 14 -36
25 -50 25 -14 0 -37 -11 -50 -25z m70 -50 c0 -13 -8 -21 -22 -23 -19 -3 -23 1
-23 23 0 22 4 26 23 23 14 -2 22 -10 22 -23z"/>
<path d="M6435 6745 c-33 -32 -34 -83 -2 -113 23 -21 31 -22 254 -22 257 0
267 2 279 67 5 27 1 37 -24 63 l-30 30 -227 0 -226 0 -24 -25z m491 -30 c14
-21 15 -31 6 -50 l-12 -25 -228 0 c-241 0 -252 2 -252 46 0 51 14 54 250 54
l220 0 16 -25z"/>
<path d="M6290 6265 l0 -285 400 0 400 0 0 285 0 285 -400 0 -400 0 0 -285z
m760 5 l0 -250 -365 0 -365 0 0 243 c0 134 3 247 7 250 3 4 168 7 365 7 l358
0 0 -250z"/>
<path d="M2642 7578 c3 -7 17 -14 31 -16 l27 -3 0 -190 0 -190 -30 -10 c-16
-6 -30 -18 -30 -26 0 -13 9 -15 53 -9 28 3 105 6 169 6 l117 0 12 55 c13 57 5
84 -15 51 -33 -56 -50 -67 -112 -73 -38 -3 -69 -1 -83 6 -20 11 -22 18 -19
104 l3 92 68 3 67 3 0 -31 c0 -25 4 -31 18 -28 14 3 17 15 17 73 0 58 -3 70
-17 73 -14 3 -18 -3 -18 -22 0 -25 -1 -26 -70 -26 l-71 0 3 68 3 67 60 3 c79
4 97 -2 118 -38 20 -33 52 -42 43 -12 -2 9 -7 32 -11 50 l-7 32 -165 0 c-127
0 -164 -3 -161 -12z"/>
<path d="M3121 7554 c-40 -33 -50 -85 -26 -130 19 -35 56 -58 124 -75 94 -23
130 -102 72 -160 -58 -58 -152 -23 -166 61 -7 39 -19 58 -28 43 -3 -5 -8 -34
-12 -65 -6 -50 -5 -58 9 -58 9 0 30 -10 45 -21 39 -28 116 -30 161 -3 46 27
72 78 67 132 -6 61 -44 97 -126 123 -36 11 -76 29 -88 41 -44 41 -19 108 40
108 29 0 83 -41 92 -70 4 -11 13 -20 21 -20 11 0 14 15 14 60 0 59 -6 70 -27
49 -8 -8 -17 -8 -31 0 -39 21 -108 13 -141 -15z"/>
<path d="M3406 7563 c-3 -10 -8 -35 -12 -55 -8 -50 16 -52 39 -3 17 35 17 35
82 35 l65 0 0 -184 0 -185 -27 -3 c-17 -2 -28 -9 -28 -18 0 -12 18 -14 95 -14
77 0 95 2 95 14 0 10 -12 16 -32 18 l-33 3 0 185 0 184 64 0 c63 0 64 -1 85
-36 28 -47 40 -36 28 26 l-10 50 -203 0 c-184 0 -203 -2 -208 -17z"/>
<path d="M9115 7536 c-18 -18 -25 -35 -23 -52 4 -31 22 -36 26 -6 3 18 10 22
37 22 71 0 85 -87 25 -145 -38 -36 -38 -45 -1 -45 47 0 80 -17 92 -47 21 -56
-14 -133 -61 -133 -12 0 -31 11 -44 25 -26 28 -64 33 -73 10 -7 -21 22 -51 56
-58 39 -8 99 8 126 33 13 12 29 44 35 71 16 67 0 114 -46 137 -19 9 -33 18
-32 21 30 63 40 104 30 126 -13 29 -46 51 -89 60 -27 5 -37 2 -58 -19z"/>
<path d="M8102 7528 c3 -7 21 -14 41 -16 l37 -3 0 -124 0 -124 -32 -3 c-18 -2
-33 -7 -33 -13 0 -6 41 -10 98 -10 73 -1 97 2 97 12 0 8 -13 13 -35 13 l-35 0
0 124 0 124 30 6 c17 3 30 10 30 16 0 6 -39 10 -101 10 -76 0 -100 -3 -97 -12z"/>
<path d="M8433 7520 c-83 -50 -93 -161 -21 -237 33 -35 100 -57 150 -49 l43 7
-39 -40 c-22 -22 -63 -53 -93 -68 -85 -45 -55 -64 34 -22 103 49 179 167 171
264 -5 61 -40 120 -87 148 -40 23 -117 22 -158 -3z m113 -26 c100 -47 101
-234 1 -234 -72 0 -127 66 -127 152 0 46 11 68 45 86 27 15 41 15 81 -4z"/>
<path d="M8803 7520 c-81 -49 -96 -152 -32 -225 37 -42 106 -70 154 -62 19 3
35 2 35 -2 0 -16 -83 -83 -126 -102 -47 -21 -60 -34 -44 -44 5 -3 37 6 70 21
118 53 202 182 185 284 -20 118 -148 187 -242 130z m135 -43 c56 -52 70 -141
30 -192 -19 -24 -26 -27 -65 -22 -48 5 -77 26 -100 71 -20 38 -21 119 -3 141
33 40 96 41 138 2z"/>
<path d="M3880 7185 c-14 -17 -5 -51 16 -59 22 -8 54 11 54 32 0 38 -46 56
-70 27z"/>
<path d="M7834 5076 c-98 -19 -137 -32 -224 -77 -366 -190 -529 -659 -360
-1035 93 -207 293 -378 520 -445 62 -18 102 -22 231 -23 l156 -1 39 -30 c21
-16 105 -94 186 -173 178 -172 235 -205 352 -205 74 0 144 22 179 57 33 33 21
43 -58 49 -111 8 -165 37 -287 154 -57 54 -130 122 -163 151 l-60 53 25 20
c182 146 300 319 349 510 110 429 -128 866 -531 979 -95 27 -260 34 -354 16z
m249 -111 c37 -8 95 -29 130 -47 85 -45 193 -154 239 -243 129 -248 134 -603
12 -812 -37 -64 -147 -172 -210 -205 -230 -123 -511 -47 -690 187 -126 164
-191 410 -165 617 21 164 73 271 180 369 139 128 314 175 504 134z"/>
<path d="M2140 5066 c-162 -34 -274 -98 -405 -230 -113 -114 -167 -203 -207
-342 -33 -118 -31 -305 6 -427 30 -101 52 -147 109 -231 88 -130 237 -247 388
-306 417 -161 861 27 1023 433 34 85 48 171 47 296 -1 248 -83 436 -267 610
-92 88 -213 156 -329 187 -82 22 -282 27 -365 10z m268 -121 c173 -41 330
-176 407 -348 52 -118 69 -210 70 -372 0 -130 -3 -160 -23 -225 -57 -180 -168
-297 -348 -362 -73 -27 -241 -36 -323 -18 -160 35 -303 154 -385 320 -73 149
-90 226 -90 410 0 142 2 162 27 237 62 184 202 313 392 359 70 17 198 17 273
-1z"/>
<path d="M630 5019 c-41 -5 -140 -12 -220 -17 l-145 -7 0 -35 c0 -35 0 -35 60
-47 34 -7 65 -19 72 -29 10 -14 13 -143 13 -617 0 -365 -4 -605 -10 -616 -5
-11 -26 -21 -51 -25 -71 -11 -109 -32 -109 -59 0 -14 6 -29 12 -34 8 -6 142
-13 324 -16 346 -6 418 1 520 49 67 32 160 115 203 183 58 92 78 232 46 336
-31 106 -125 203 -231 241 l-52 18 68 65 c91 89 122 151 128 259 6 103 -13
156 -77 225 -52 56 -110 89 -201 112 -78 20 -248 27 -350 14z m276 -118 c93
-41 155 -130 162 -233 7 -89 -13 -144 -73 -204 -67 -68 -134 -86 -290 -82
l-110 3 -3 240 c-1 132 0 250 3 262 8 32 50 43 160 40 77 -3 112 -8 151 -26z
m51 -635 c79 -25 133 -71 172 -148 78 -154 37 -334 -96 -419 -101 -63 -224
-90 -347 -75 -100 13 -96 0 -96 340 0 162 3 302 6 311 6 15 23 17 158 12 102
-3 168 -10 203 -21z"/>
<path d="M3229 4994 c-19 -52 3 -76 78 -89 23 -3 46 -12 52 -18 6 -7 11 -196
14 -477 3 -293 9 -483 16 -514 19 -83 55 -149 121 -219 74 -80 158 -125 295
-159 125 -30 354 -31 467 0 197 54 310 165 354 348 14 58 17 140 18 514 1 374
3 450 16 475 15 30 40 46 95 62 24 7 31 14 33 41 6 59 3 60 -230 58 -186 -1
-212 -3 -222 -18 -7 -11 -7 -26 0 -45 8 -23 18 -30 54 -36 25 -5 55 -10 66
-13 12 -2 31 -12 43 -21 21 -18 21 -22 22 -488 0 -446 -1 -473 -20 -535 -50
-160 -162 -235 -371 -247 -220 -13 -392 50 -482 177 -69 99 -71 112 -75 604
-3 242 -2 449 1 461 7 26 41 41 116 50 30 3 60 11 67 17 16 13 17 70 1 86 -9
9 -82 12 -265 12 l-253 0 -11 -26z"/>
<path d="M8849 4994 c-19 -52 3 -76 78 -89 23 -3 46 -12 52 -18 6 -7 11 -196
14 -477 3 -293 9 -483 16 -514 19 -83 55 -149 121 -219 74 -80 158 -125 295
-159 125 -30 354 -31 467 0 197 54 310 165 354 348 14 58 17 140 18 514 1 374
3 450 16 475 15 30 40 46 95 62 24 7 31 14 33 41 6 59 3 60 -230 58 -186 -1
-212 -3 -222 -18 -7 -11 -7 -26 0 -45 8 -23 18 -30 54 -36 25 -5 55 -10 66
-13 12 -2 31 -12 43 -21 21 -18 21 -22 22 -488 0 -446 -1 -473 -20 -535 -50
-160 -162 -235 -371 -247 -220 -13 -392 50 -482 177 -69 99 -71 112 -75 604
-3 242 -2 449 1 461 7 26 41 41 116 50 30 3 60 11 67 17 16 13 17 70 1 86 -9
9 -82 12 -265 12 l-253 0 -11 -26z"/>
<path d="M10526 5004 c-9 -8 -16 -24 -16 -34 0 -18 24 -50 38 -50 51 -3 146
-21 157 -30 21 -18 22 -1143 1 -1193 -11 -28 -25 -37 -98 -65 -103 -39 -115
-50 -98 -92 16 -38 39 -44 120 -31 38 7 247 11 505 11 242 0 450 3 462 6 27 7
32 23 74 217 31 147 31 149 12 168 -12 12 -26 17 -37 13 -9 -3 -42 -50 -73
-103 -90 -155 -87 -153 -288 -172 -139 -14 -310 -1 -351 26 l-24 15 0 291 c0
177 4 298 10 309 16 30 74 40 240 40 206 0 204 1 208 -113 3 -81 5 -89 27 -99
34 -15 74 -2 85 28 6 14 10 119 10 232 0 234 -4 252 -64 252 -45 0 -56 -16
-56 -81 0 -41 -5 -63 -19 -80 -19 -24 -23 -24 -214 -27 -172 -3 -196 -1 -211
14 -15 15 -17 40 -14 214 2 149 6 201 17 213 12 15 42 17 248 17 140 0 242 -4
253 -10 11 -6 43 -50 71 -98 28 -48 58 -95 67 -104 16 -19 77 -25 87 -9 8 13
-54 291 -71 319 l-14 22 -515 0 c-454 0 -515 -2 -529 -16z"/>
<path d="M4962 4987 c-14 -17 -72 -276 -72 -322 0 -28 5 -38 25 -47 35 -16 48
-2 111 124 29 59 63 112 73 118 12 6 96 10 205 10 173 0 187 -1 206 -20 20
-20 20 -33 20 -598 0 -488 -2 -581 -15 -598 -12 -17 -29 -22 -101 -28 -48 -3
-93 -11 -101 -17 -22 -19 -15 -57 13 -75 22 -15 61 -17 327 -17 l302 1 8 23
c5 14 5 35 -1 50 -10 24 -16 26 -106 36 -52 5 -102 16 -111 23 -13 11 -15 85
-15 601 0 521 2 589 16 603 13 13 45 16 198 16 217 0 209 3 275 -121 53 -102
67 -119 97 -119 17 0 25 7 30 25 6 26 -41 296 -57 327 -9 17 -47 18 -663 18
-523 0 -656 -3 -664 -13z"/>
<path d="M6484 4987 c-16 -9 -20 -82 -4 -92 5 -3 43 -9 82 -12 40 -3 79 -10
86 -16 18 -14 17 -1171 -1 -1207 -11 -23 -21 -26 -112 -37 -55 -6 -101 -12
-102 -12 -9 -3 -1 -81 8 -87 6 -3 144 -6 306 -6 320 0 313 -1 313 55 0 35 -29
47 -114 47 -104 0 -96 -55 -96 637 0 468 3 603 13 611 6 5 39 13 72 17 73 8
85 17 85 62 0 18 -6 36 -12 38 -24 8 -509 10 -524 2z"/>
<path d="M3490 2650 l0 -190 25 0 c25 0 25 1 25 85 l0 85 100 0 100 0 0 -85
c0 -84 0 -85 25 -85 l25 0 0 190 0 190 -25 0 c-25 0 -25 -1 -25 -85 l0 -85
-100 0 -100 0 0 85 c0 84 0 85 -25 85 l-25 0 0 -190z"/>
<path d="M4002 2824 c-109 -55 -131 -225 -42 -314 59 -59 172 -68 239 -21 97
69 96 253 -1 322 -43 31 -147 38 -196 13z m156 -44 c39 -24 62 -73 62 -130 0
-87 -55 -150 -130 -150 -78 0 -130 59 -130 147 0 30 7 67 15 84 34 64 120 87
183 49z"/>
<path d="M4320 2820 c0 -18 7 -20 60 -20 l60 0 0 -170 0 -170 25 0 25 0 2 168
3 167 58 3 c49 3 57 6 57 22 0 19 -8 20 -145 20 -138 0 -145 -1 -145 -20z"/>
<path d="M4710 2650 l0 -190 115 0 c108 0 115 1 115 20 0 19 -7 20 -90 20
l-90 0 0 65 0 65 70 0 c63 0 70 2 70 20 0 18 -7 20 -70 20 l-70 0 0 65 0 65
91 0 c81 0 90 2 87 18 -3 15 -18 17 -116 20 l-112 3 0 -191z"/>
<path d="M5050 2650 l0 -190 105 0 c98 0 105 1 105 20 0 18 -7 20 -80 20 l-80
0 0 170 0 170 -25 0 -25 0 0 -190z"/>
<path d="M5378 2811 c-27 -24 -33 -36 -33 -69 0 -53 31 -86 99 -108 66 -21 76
-30 76 -65 0 -63 -74 -89 -135 -49 -28 19 -55 13 -55 -11 0 -21 66 -49 117
-49 72 0 113 35 120 102 5 40 2 50 -19 71 -13 13 -46 32 -73 42 -86 32 -106
64 -65 105 24 24 60 26 102 4 25 -13 32 -14 39 -2 5 7 9 16 9 20 0 16 -61 38
-104 38 -36 0 -52 -6 -78 -29z"/>
<path d="M5866 2809 c-28 -33 -33 -71 -12 -108 13 -23 11 -27 -25 -61 -42 -40
-50 -75 -27 -125 25 -56 116 -72 189 -34 l41 20 22 -20 c12 -12 35 -21 51 -21
l29 0 -37 38 -38 38 16 37 c8 20 15 48 15 62 0 40 -32 28 -43 -15 -5 -19 -12
-39 -16 -43 -10 -10 -129 118 -142 151 -12 32 5 70 37 78 22 6 32 2 50 -19 27
-32 54 -35 54 -8 0 31 -47 61 -95 61 -36 0 -48 -5 -69 -31z m84 -224 c60 -61
60 -64 -13 -87 -33 -10 -41 -9 -65 9 -36 26 -41 79 -12 111 11 12 24 22 28 22
4 0 32 -25 62 -55z"/>
<path d="M6370 2651 l0 -191 25 0 c25 0 25 1 25 80 0 78 1 80 25 80 18 0 38
-18 85 -80 47 -62 67 -80 85 -80 14 0 25 3 25 6 0 3 -27 41 -60 84 -54 70 -58
79 -40 85 10 3 31 20 45 36 35 42 34 89 -4 131 -28 32 -32 33 -120 36 l-91 4
0 -191z m176 124 c20 -28 17 -66 -8 -92 -17 -18 -32 -23 -70 -23 l-48 0 0 71
0 71 56 -4 c40 -3 61 -10 70 -23z"/>
<path d="M6740 2650 l0 -190 115 0 c108 0 115 1 115 20 0 19 -7 20 -90 20
l-90 0 0 65 0 65 68 0 c73 0 84 4 75 26 -4 10 -24 14 -74 14 l-69 0 0 65 0 65
90 0 c83 0 90 1 90 20 0 19 -7 20 -115 20 l-115 0 0 -190z"/>
<path d="M7099 2811 c-22 -22 -29 -39 -29 -68 0 -54 21 -79 91 -104 72 -26 98
-57 81 -95 -7 -13 -23 -29 -36 -35 -29 -14 -89 -4 -106 16 -17 20 -27 19 -40
-4 -24 -46 112 -81 179 -47 33 18 51 54 51 105 0 47 -21 67 -102 101 -72 30
-88 55 -57 94 24 30 72 35 107 10 24 -16 42 -12 42 11 0 25 -43 45 -98 45 -46
0 -58 -4 -83 -29z"/>
<path d="M7475 2821 c-84 -51 -118 -157 -80 -249 33 -77 86 -112 170 -112 84
0 137 35 170 112 38 93 -1 209 -87 254 -40 21 -136 18 -173 -5z m151 -36 c40
-16 74 -78 74 -135 0 -57 -34 -119 -74 -135 -75 -32 -146 -9 -176 57 -63 139
44 269 176 213z"/>
<path d="M7860 2650 l0 -190 25 0 c25 0 25 1 25 80 l0 80 29 0 c26 0 38 -11
87 -80 49 -69 62 -80 87 -80 l29 0 -38 53 c-21 28 -48 65 -60 81 l-22 29 31
21 c44 30 65 91 46 132 -21 44 -71 64 -161 64 l-78 0 0 -190z m175 125 c14
-13 25 -33 25 -45 0 -11 -11 -32 -25 -45 -19 -20 -34 -25 -75 -25 l-50 0 0 70
0 70 50 0 c41 0 56 -5 75 -25z"/>
<path d="M8180 2820 c0 -16 8 -19 61 -22 l61 -3 1 -165 2 -165 28 -3 27 -3 0
170 0 171 60 0 c53 0 60 2 60 20 0 19 -7 20 -150 20 -142 0 -150 -1 -150 -20z"/>
</g>
</svg>
