<?xml version="1.0" standalone="no"?>
<!DOCTYPE svg PUBLIC "-//W3C//DTD SVG 20010904//EN"
 "http://www.w3.org/TR/2001/REC-SVG-20010904/DTD/svg10.dtd">
<svg version="1.0" xmlns="http://www.w3.org/2000/svg"
 width="128.000000pt" height="128.000000pt" viewBox="0 0 128.000000 128.000000"
 preserveAspectRatio="xMidYMid meet">

<g transform="translate(0.000000,128.000000) scale(0.100000,-0.100000)"
fill="#ffffff" stroke="none">
<path d="M16 1074 c-20 -20 -20 -48 0 -68 14 -14 84 -16 624 -16 540 0 610 2
624 16 20 20 20 48 0 68 -14 14 -84 16 -624 16 -540 0 -610 -2 -624 -16z"/>
<path d="M16 674 c-20 -20 -20 -48 0 -68 14 -14 84 -16 624 -16 540 0 610 2
624 16 20 20 20 48 0 68 -14 14 -84 16 -624 16 -540 0 -610 -2 -624 -16z"/>
<path d="M16 274 c-20 -20 -20 -48 0 -68 14 -14 84 -16 624 -16 540 0 610 2
624 16 20 20 20 48 0 68 -14 14 -84 16 -624 16 -540 0 -610 -2 -624 -16z"/>
</g>
</svg>
