<?xml version="1.0" standalone="no"?>
<!DOCTYPE svg PUBLIC "-//W3C//DTD SVG 20010904//EN"
 "http://www.w3.org/TR/2001/REC-SVG-20010904/DTD/svg10.dtd">
<svg version="1.0" xmlns="http://www.w3.org/2000/svg"
 width="100px" height="100px" viewBox="0 0 1200.000000 1200.000000"
 preserveAspectRatio="xMidYMid meet">

<g transform="translate(0.000000,1200.000000) scale(0.100000,-0.100000)"
fill="#000000" stroke="none">
<path d="M7555 11635 c-16 -7 -768 -506 -1670 -1107 -1592 -1061 -1640 -1094
-1654 -1134 -18 -52 -9 -88 34 -131 28 -28 40 -33 82 -33 43 0 59 7 146 65
l97 65 0 -315 0 -315 -88 0 c-142 0 -132 24 -132 -324 0 -350 -10 -326 128
-326 l92 0 0 -550 0 -550 -98 0 c-63 0 -102 -4 -110 -12 -9 -9 -12 -91 -12
-310 0 -347 -12 -318 129 -318 l91 0 0 -550 0 -550 -93 0 c-78 0 -97 -3 -110
-18 -15 -16 -17 -53 -17 -310 0 -346 -10 -322 132 -322 l88 0 0 -579 c0 -570
0 -579 21 -605 l20 -26 1383 0 1383 0 21 23 22 23 0 582 0 582 88 0 c142 0
132 -24 132 325 0 254 -2 296 -16 309 -12 12 -37 16 -110 16 l-94 0 0 550 0
550 91 0 c141 0 129 -29 129 318 0 219 -3 301 -12 310 -8 8 -47 12 -110 12
l-98 0 0 550 0 550 93 0 c78 0 97 3 110 18 15 16 17 53 17 310 0 346 10 322
-132 322 l-88 0 0 1263 0 1264 131 87 c105 70 133 94 146 123 27 66 -6 141
-73 169 -41 17 -51 17 -89 -1z m-225 -1680 l0 -1225 -135 0 -135 0 0 182 c0
155 -2 184 -17 200 -15 16 -36 18 -256 18 -210 0 -243 -2 -259 -17 -16 -14
-18 -35 -18 -200 l0 -183 -110 0 -110 0 0 274 c0 236 -2 277 -16 290 -13 14
-51 16 -256 16 -211 0 -244 -2 -260 -17 -17 -15 -18 -37 -18 -290 l0 -273
-110 0 -110 0 0 182 c0 155 -2 184 -17 200 -15 16 -36 18 -256 18 -210 0 -243
-2 -259 -17 -16 -14 -18 -35 -18 -200 l0 -183 -135 0 -135 0 0 353 0 352 1313
872 c721 480 1313 873 1315 873 1 0 2 -551 2 -1225z m-1920 -1080 l0 -145
-165 0 -165 0 0 145 0 145 165 0 165 0 0 -145z m1540 0 l0 -145 -165 0 -165 0
0 145 0 145 165 0 165 0 0 -145z m600 -300 l0 -45 -1535 0 -1535 0 0 45 0 45
1535 0 1535 0 0 -45z m0 -170 l0 -55 -1535 0 -1535 0 0 55 0 55 1535 0 1535 0
0 -55z m0 -170 l0 -45 -1535 0 -1535 0 0 45 0 45 1535 0 1535 0 0 -45z m-220
-705 l0 -550 -135 0 -135 0 0 182 c0 155 -2 184 -17 200 -15 16 -36 18 -256
18 -210 0 -243 -2 -259 -17 -16 -14 -18 -35 -18 -200 l0 -183 -110 0 -110 0 0
274 c0 236 -2 277 -16 290 -13 14 -51 16 -256 16 -211 0 -244 -2 -260 -17 -17
-15 -18 -37 -18 -290 l0 -273 -110 0 -110 0 0 182 c0 155 -2 184 -17 200 -15
16 -36 18 -256 18 -210 0 -243 -2 -259 -17 -16 -14 -18 -35 -18 -200 l0 -183
-135 0 -135 0 0 550 0 550 1315 0 1315 0 0 -550z m-1920 -405 l0 -145 -165 0
-165 0 0 145 0 145 165 0 165 0 0 -145z m1540 0 l0 -145 -165 0 -165 0 0 145
0 145 165 0 165 0 0 -145z m600 -295 l0 -40 -1535 0 -1535 0 0 40 0 40 1535 0
1535 0 0 -40z m0 -170 l0 -50 -1535 0 -1535 0 0 50 0 50 1535 0 1535 0 0 -50z
m0 -167 l0 -43 -1535 0 -1535 0 0 43 0 42 1535 0 1535 0 0 -42z m-220 -703 l0
-550 -135 0 -135 0 0 180 c0 167 -1 181 -20 200 -19 19 -33 20 -253 20 -194 0
-236 -3 -255 -16 -21 -15 -22 -20 -22 -200 l0 -184 -110 0 -110 0 0 272 c0
239 -2 274 -17 290 -15 16 -36 18 -252 18 -198 0 -240 -3 -259 -16 -22 -15
-22 -17 -22 -290 l0 -274 -110 0 -110 0 0 184 c0 180 -1 185 -22 200 -19 13
-61 16 -255 16 -220 0 -234 -1 -253 -20 -19 -19 -20 -33 -20 -200 l0 -180
-135 0 -135 0 0 550 0 550 1315 0 1315 0 0 -550z m-1920 -405 l0 -145 -165 0
-165 0 0 145 0 145 165 0 165 0 0 -145z m1540 0 l0 -145 -165 0 -165 0 0 145
0 145 165 0 165 0 0 -145z m600 -300 l0 -45 -1535 0 -1535 0 0 45 0 45 1535 0
1535 0 0 -45z m0 -170 l0 -55 -1535 0 -1535 0 0 55 0 55 1535 0 1535 0 0 -55z
m0 -170 l0 -45 -1535 0 -1535 0 0 45 0 45 1535 0 1535 0 0 -45z m-220 -700 l0
-545 -520 0 -520 0 0 297 c0 262 -2 299 -17 315 -15 16 -36 18 -256 18 -210 0
-243 -2 -259 -17 -17 -15 -18 -38 -18 -315 l0 -298 -520 0 -520 0 0 545 0 545
1315 0 1315 0 0 -545z"/>
<path d="M2610 3700 l0 -200 120 0 c113 0 120 1 120 20 0 19 -7 20 -90 20
l-90 0 0 70 0 70 70 0 c63 0 70 2 70 20 0 18 -7 20 -70 20 l-70 0 0 70 0 70
85 0 c78 0 85 2 85 20 0 19 -7 20 -115 20 l-115 0 0 -200z"/>
<path d="M3004 3891 c-32 -14 -64 -60 -64 -92 0 -44 43 -85 113 -108 84 -28
107 -46 107 -81 0 -63 -95 -91 -172 -50 -31 16 -38 17 -48 5 -27 -32 39 -65
130 -65 100 0 150 39 150 116 0 54 -32 86 -114 114 -105 35 -130 66 -86 110
26 26 85 26 127 1 30 -19 32 -19 47 -2 16 17 15 20 -11 37 -31 20 -144 30
-179 15z"/>
<path d="M3270 3875 c0 -24 2 -25 65 -25 l65 0 0 -175 0 -175 25 0 25 0 0 175
0 174 63 3 c56 3 62 5 65 26 l3 22 -155 0 -156 0 0 -25z"/>
<path d="M8187 3846 c-21 -8 -47 -22 -58 -32 -19 -17 -19 -17 2 -32 18 -13 23
-12 43 7 28 27 86 28 109 3 10 -10 17 -34 17 -54 0 -42 -31 -87 -119 -173 -40
-39 -61 -67 -61 -82 0 -24 0 -24 123 -21 118 3 122 4 125 26 3 21 1 22 -87 22
l-90 0 55 51 c30 29 68 72 84 97 55 83 33 169 -48 192 -46 12 -48 12 -95 -4z"/>
<path d="M8555 3851 c-51 -21 -84 -93 -85 -186 0 -126 42 -194 126 -202 103
-10 158 70 150 218 -5 88 -24 132 -69 159 -33 20 -87 25 -122 11z m100 -55
c28 -28 40 -93 32 -177 -9 -97 -56 -142 -112 -105 -59 39 -61 249 -2 291 30
21 54 19 82 -9z"/>
<path d="M8896 3846 c-21 -8 -46 -22 -55 -30 -14 -15 -14 -18 1 -32 15 -15 18
-15 44 5 30 24 81 28 108 8 21 -15 24 -73 6 -108 -7 -13 -48 -61 -92 -105
-111 -113 -108 -118 50 -122 l122 -3 0 26 c0 25 -1 25 -87 25 l-86 0 65 68
c94 97 118 150 93 207 -25 60 -98 86 -169 61z"/>
<path d="M9221 3817 c-58 -35 -66 -44 -52 -66 7 -11 17 -8 53 13 25 14 48 26
51 26 4 0 7 -74 7 -165 l0 -165 25 0 25 0 0 195 0 195 -27 0 c-16 -1 -52 -15
-82 -33z"/>
<path d="M3626 3564 c-30 -30 -8 -69 35 -62 35 5 47 33 25 57 -23 25 -39 26
-60 5z"/>
<path d="M2879 2660 c-184 -29 -343 -141 -418 -295 -51 -103 -65 -175 -65
-320 1 -191 36 -314 121 -421 158 -198 530 -240 841 -93 l62 30 0 290 0 289
-240 0 -240 0 4 -22 c3 -13 10 -56 16 -95 l12 -73 79 0 79 0 0 -133 0 -134
-27 -13 c-16 -7 -68 -15 -118 -18 -84 -4 -94 -2 -145 25 -48 25 -59 37 -87 93
-55 110 -69 340 -29 475 62 207 267 281 476 172 l65 -34 75 68 c74 68 74 68
55 89 -25 27 -146 87 -215 105 -69 19 -227 27 -301 15z"/>
<path d="M3990 2056 l0 -586 150 0 150 0 0 225 0 225 58 0 57 0 130 -225 129
-225 169 0 c132 0 167 3 161 13 -5 6 -66 102 -137 212 -72 110 -140 216 -153
237 l-23 36 54 27 c65 34 127 91 157 148 32 60 33 220 2 288 -41 89 -129 152
-256 185 -48 13 -131 18 -355 21 l-293 5 0 -586z m533 370 c18 -7 45 -28 60
-45 23 -28 27 -42 27 -94 0 -76 -22 -124 -70 -152 -28 -16 -57 -21 -142 -24
l-108 -3 0 172 0 173 101 -7 c55 -3 115 -12 132 -20z"/>
<path d="M5696 2593 c-27 -88 -307 -947 -336 -1036 l-29 -88 157 3 156 3 30
123 30 122 186 -2 185 -3 31 -120 30 -120 157 -3 c86 -1 157 1 157 5 0 5 -84
268 -187 585 l-188 578 -182 0 -181 0 -16 -47z m258 -406 c33 -127 61 -240 64
-249 4 -17 -7 -18 -127 -18 -72 0 -131 3 -131 8 0 18 124 492 129 492 3 0 33
-105 65 -233z"/>
<path d="M6910 2055 l0 -586 133 3 132 3 -1 305 c0 263 -9 423 -30 545 l-5 30
14 -25 c8 -14 89 -213 182 -442 l168 -418 188 0 189 0 0 585 0 585 -136 0
-137 0 6 -337 c4 -201 13 -379 21 -438 8 -55 13 -101 12 -102 -1 -2 -83 194
-182 435 l-180 437 -187 3 -187 2 0 -585z"/>
<path d="M8480 2055 l0 -587 268 4 c254 5 271 6 357 32 226 68 332 185 371
408 28 161 7 354 -52 471 -54 105 -173 187 -337 228 -70 18 -121 22 -344 26
l-263 5 0 -587z m538 360 c55 -23 114 -91 136 -157 23 -71 31 -225 17 -317
-30 -189 -105 -257 -297 -268 l-94 -6 0 388 0 388 98 -5 c58 -3 114 -12 140
-23z"/>
<path d="M5204 1070 c-101 -20 -194 -94 -238 -189 -18 -39 -21 -64 -21 -176 0
-122 2 -133 28 -187 65 -133 187 -195 366 -186 149 7 247 60 303 165 73 135
58 356 -33 466 -78 94 -245 138 -405 107z m186 -46 c49 -20 73 -52 93 -124 36
-129 27 -354 -16 -440 -32 -64 -90 -93 -171 -87 -36 3 -69 13 -85 25 -60 44
-91 149 -91 307 0 147 28 253 78 298 41 38 127 47 192 21z"/>
<path d="M4010 1045 c0 -21 5 -25 30 -25 l30 0 -2 -317 -3 -318 -27 0 c-23 1
-28 -4 -28 -22 l0 -23 161 0 160 0 -3 23 c-2 15 -9 21 -22 19 -10 -2 -29 -1
-42 2 -24 6 -24 7 -24 156 l0 150 145 0 145 0 0 -144 c0 -157 -5 -170 -57
-164 -23 2 -29 -1 -31 -19 l-3 -23 160 0 c152 0 161 1 161 19 0 14 -8 21 -27
23 l-28 3 -3 318 -2 317 30 0 c25 0 30 4 30 25 l0 26 -157 -3 c-150 -3 -158
-4 -158 -23 0 -16 7 -20 33 -21 18 0 37 -5 42 -10 7 -7 10 -63 8 -145 l-3
-134 -142 -3 -143 -3 0 140 c0 151 1 154 55 155 23 1 30 6 30 21 0 19 -8 20
-157 23 l-158 3 0 -26z"/>
<path d="M5820 975 c0 -86 2 -95 19 -95 14 0 20 10 25 41 9 59 49 95 114 104
28 4 56 4 62 0 15 -9 14 -617 -2 -633 -7 -7 -27 -12 -45 -12 -26 0 -33 -4 -33
-20 0 -20 5 -20 173 -18 162 3 172 4 172 22 0 16 -7 20 -40 20 l-40 1 0 320 0
320 44 -2 c83 -4 119 -32 131 -103 4 -24 11 -35 23 -35 9 0 17 3 17 8 0 4 0
45 0 92 l0 85 -310 0 -310 0 0 -95z"/>
<path d="M6602 1048 c2 -16 10 -23 25 -23 13 0 27 -5 33 -11 7 -7 9 -116 8
-320 l-3 -309 -30 0 c-23 -1 -31 -6 -33 -23 l-3 -22 300 0 301 0 0 110 c0 101
-2 110 -19 110 -20 0 -31 -18 -31 -53 0 -34 -35 -84 -72 -103 -25 -13 -59 -18
-133 -18 l-100 -1 -3 153 -3 152 59 0 c51 0 62 -4 84 -27 14 -16 29 -43 33
-60 5 -24 12 -33 26 -33 18 0 19 9 19 145 0 135 -1 145 -19 145 -14 0 -21 -10
-26 -36 -3 -20 -17 -47 -30 -60 -20 -20 -34 -24 -85 -24 l-60 0 0 138 c0 76 2
141 4 143 2 2 49 2 105 -1 89 -5 103 -8 126 -30 15 -14 31 -44 38 -67 8 -30
16 -43 29 -43 16 0 18 10 18 95 l0 95 -281 0 -280 0 3 -22z"/>
<path d="M7390 1044 c0 -23 3 -26 25 -22 14 3 29 0 35 -7 7 -8 9 -122 8 -321
l-3 -309 -32 1 c-29 2 -33 -1 -33 -22 l0 -24 275 0 275 0 0 105 c0 98 -1 105
-20 105 -16 0 -20 -7 -20 -32 0 -18 -9 -47 -20 -65 -29 -49 -72 -66 -165 -67
l-80 -1 -3 318 -2 317 40 0 c36 0 40 2 40 25 l0 25 -160 0 -160 0 0 -26z"/>
</g>
</svg>
