<?xml version="1.0" standalone="no"?>
<!DOCTYPE svg PUBLIC "-//W3C//DTD SVG 20010904//EN"
 "http://www.w3.org/TR/2001/REC-SVG-20010904/DTD/svg10.dtd">
<svg version="1.0" xmlns="http://www.w3.org/2000/svg"
 width="100px" height="100px" viewBox="0 0 1200.000000 1200.000000"
 preserveAspectRatio="xMidYMid meet">

<g transform="translate(0.000000,1200.000000) scale(0.100000,-0.100000)"
fill="#000000" stroke="none">
<path d="M5640 11535 c-19 -7 -84 -19 -143 -26 -85 -10 -113 -10 -128 -1 -16
10 -19 9 -19 -7 0 -10 -3 -34 -7 -52 l-6 -34 30 33 c25 26 39 32 72 32 26 0
41 -5 41 -12 0 -7 9 -71 20 -141 10 -71 16 -135 13 -143 -2 -7 -13 -16 -24
-19 -29 -9 -23 -28 6 -21 13 3 52 9 85 13 65 6 77 17 31 26 -33 7 -32 3 -57
180 -9 67 -13 122 -8 126 5 5 28 11 51 15 41 6 73 -9 73 -35 0 -5 5 -9 10 -9
6 0 10 20 10 45 0 25 -3 44 -7 44 -5 -1 -24 -7 -43 -14z"/>
<path d="M6248 11525 c-3 -4 -30 -13 -60 -20 l-53 -12 34 -13 33 -13 -7 -111
c-8 -139 -10 -146 -46 -153 -16 -3 -29 -9 -29 -13 0 -8 181 -22 189 -15 2 3
-10 10 -27 16 -17 6 -33 16 -35 23 -3 7 -1 70 5 141 9 131 8 182 -4 170z"/>
<path d="M6543 11479 c-40 -12 -83 -62 -83 -99 0 -19 10 -36 31 -54 35 -30 35
-30 78 -15 34 12 44 34 10 24 -28 -9 -59 21 -59 57 0 45 17 68 50 68 64 0 80
-119 26 -200 -34 -52 -99 -99 -149 -107 -21 -3 -34 -9 -27 -13 14 -9 91 5 123
21 75 40 147 136 147 196 0 83 -73 143 -147 122z"/>
<path d="M5083 11430 c-39 -23 -53 -48 -53 -93 0 -45 39 -79 114 -101 81 -24
111 -81 66 -126 -29 -29 -55 -25 -100 16 -22 20 -43 34 -46 31 -4 -3 2 -23 12
-44 15 -29 26 -39 48 -41 84 -10 156 40 156 108 0 56 -36 94 -116 120 -74 25
-103 55 -84 89 10 21 40 41 59 41 5 0 23 -12 40 -26 40 -33 53 -28 36 14 -13
29 -18 32 -57 32 -25 0 -56 -8 -75 -20z"/>
<path d="M6854 11391 c-37 -23 -64 -58 -64 -84 0 -26 54 -77 82 -77 13 0 33 7
44 15 18 14 18 14 -8 15 -28 0 -58 31 -58 61 0 22 38 69 56 69 8 0 23 -9 34
-20 22 -22 27 -89 10 -134 -26 -69 -132 -146 -202 -146 -29 -1 -31 -2 -14 -11
30 -18 123 6 181 46 91 63 125 145 90 219 -30 63 -93 82 -151 47z"/>
<path d="M4728 11317 c-59 -22 -105 -44 -103 -48 3 -4 13 -5 23 -2 10 2 23 -2
29 -9 13 -16 103 -255 103 -274 0 -7 -9 -19 -20 -27 -25 -18 -14 -30 14 -15
11 6 65 27 120 47 54 20 98 39 97 44 -1 4 -1 23 -1 42 0 19 -4 35 -10 35 -5 0
-10 -10 -10 -23 0 -45 -99 -103 -126 -75 -18 19 -55 121 -46 129 4 3 21 11 39
17 25 8 34 8 44 -4 22 -27 28 -14 12 31 -16 47 -33 60 -33 24 0 -14 -11 -25
-36 -35 -43 -18 -43 -18 -70 63 -21 61 -19 64 49 85 34 10 40 9 62 -12 27 -25
32 -16 13 25 -6 14 -18 25 -27 24 -9 0 -64 -19 -123 -42z"/>
<path d="M7159 11281 c-31 -25 -20 -36 16 -17 43 23 85 1 85 -44 0 -38 -12
-46 -92 -64 -34 -8 -37 -26 -4 -26 57 0 76 -76 33 -126 -33 -38 -81 -37 -111
1 -23 28 -46 28 -46 0 0 -42 134 -64 184 -32 62 41 77 115 32 154 l-25 21 28
10 c63 22 79 74 36 117 -31 32 -101 35 -136 6z"/>
<path d="M5770 11225 c-18 -22 -1 -50 31 -50 20 0 24 5 24 30 0 23 -5 31 -21
33 -11 2 -27 -4 -34 -13z"/>
<path d="M5820 10859 c-690 -47 -1319 -389 -1729 -940 -47 -63 -108 -154 -136
-202 l-50 -86 -77 -1 c-66 0 -79 -3 -88 -19 -5 -11 -10 -72 -10 -135 0 -104 2
-118 21 -137 11 -11 27 -18 35 -15 11 4 14 -12 14 -89 0 -84 2 -96 20 -107 17
-11 20 -24 20 -94 0 -60 4 -85 15 -94 13 -11 15 -237 15 -1925 0 -1688 -2
-1914 -15 -1925 -12 -10 -15 -37 -15 -126 l0 -114 -29 0 c-60 0 -61 -2 -61
-126 l0 -114 25 0 c25 0 25 0 25 -98 0 -63 4 -102 12 -110 18 -18 4391 -17
4406 1 6 7 13 55 14 107 3 91 4 94 28 100 24 6 25 8 28 109 2 67 -1 108 -9
117 -7 8 -31 14 -60 14 l-49 0 0 114 c0 89 -3 118 -15 130 -13 13 -15 240 -15
1923 0 1897 0 1908 20 1921 17 11 20 23 20 96 0 80 1 85 23 88 21 3 22 9 27
102 4 86 7 100 23 102 42 6 47 21 47 146 0 66 -5 128 -10 139 -10 17 -22 19
-133 19 l-122 0 -58 98 c-220 371 -567 691 -962 889 -356 179 -803 269 -1195
242z m480 -94 c643 -99 1216 -467 1569 -1009 39 -61 71 -114 71 -118 0 -4 -46
-8 -103 -8 -103 0 -104 0 -118 27 -32 61 -168 233 -258 326 -183 189 -354 314
-586 428 -278 136 -528 198 -841 206 -365 11 -654 -51 -971 -206 -337 -166
-607 -400 -814 -707 l-50 -74 -99 0 c-55 0 -100 4 -100 8 0 15 104 176 170
262 87 115 255 287 370 379 361 291 788 461 1260 505 90 8 397 -4 500 -19z
m-45 -281 c502 -73 970 -352 1277 -762 32 -42 58 -80 58 -84 0 -5 -17 -8 -39
-8 -37 0 -42 5 -112 91 -41 50 -81 103 -90 118 -8 14 -24 31 -35 36 -32 16
-194 168 -194 182 0 15 -15 24 -44 27 -12 2 -49 21 -82 43 -83 57 -215 126
-309 164 -44 17 -87 37 -96 45 -8 8 -25 14 -37 14 -11 0 -75 13 -141 29 -173
43 -294 54 -505 48 -209 -5 -332 -26 -520 -88 -352 -116 -667 -336 -895 -627
-63 -80 -66 -82 -108 -82 l-44 0 32 46 c90 132 245 295 384 406 291 232 675
385 1050 418 122 10 316 4 450 -16z m-285 -381 c0 -141 -2 -254 -4 -252 -6 5
-176 481 -176 490 0 7 41 12 143 17 l37 2 0 -257z m221 239 l37 -7 -89 -245
-88 -245 -1 253 0 252 53 -1 c28 0 68 -3 88 -7z m-417 -194 c38 -106 79 -222
93 -257 13 -36 21 -63 18 -60 -22 23 -362 465 -359 468 3 3 148 36 174 40 3 1
37 -86 74 -191z m629 154 c38 -9 68 -22 67 -27 0 -6 -77 -109 -172 -230 -94
-121 -169 -215 -167 -209 2 6 42 117 89 247 60 168 89 237 100 237 8 0 46 -8
83 -18z m-857 -162 c216 -279 257 -333 245 -325 -13 7 -532 384 -539 390 -2 1
39 18 90 37 68 25 96 32 104 24 6 -6 51 -63 100 -126z m1110 79 c41 -17 74
-34 73 -37 0 -4 -88 -70 -195 -147 -107 -77 -223 -160 -257 -185 -74 -53 -78
-60 123 199 85 110 161 200 168 201 7 0 47 -14 88 -31z m-1448 -78 c20 -16
138 -102 262 -191 124 -89 229 -166 235 -171 5 -5 -119 43 -275 107 -157 63
-320 130 -363 146 -42 17 -76 33 -74 34 5 5 172 104 175 104 2 0 20 -13 40
-29z m1687 -44 c39 -23 68 -47 66 -52 -2 -6 -56 -31 -120 -57 -64 -25 -210
-85 -325 -132 -115 -46 -205 -81 -200 -76 22 22 490 359 499 359 6 1 42 -18
80 -42z m-1620 -232 c187 -76 343 -141 348 -145 5 -5 -481 79 -841 145 -18 3
-30 10 -26 16 15 26 151 129 164 126 8 -2 168 -66 355 -142z m1829 85 c29 -21
62 -50 75 -64 l24 -25 -24 -5 c-13 -3 -190 -35 -394 -71 -203 -36 -379 -68
-390 -72 -11 -3 -17 -3 -14 1 4 5 656 273 668 275 2 1 27 -17 55 -39z m-1946
-230 c251 -45 462 -83 467 -85 6 -2 -239 -4 -543 -4 -480 -1 -552 1 -545 13
22 40 140 165 151 161 7 -2 218 -41 470 -85z m2188 -7 l66 -78 -256 -3 c-141
-1 -372 -1 -513 0 l-258 3 425 76 c234 42 435 77 447 78 16 1 41 -20 89 -76z
m874 -238 l0 -75 -2201 2 -2201 3 -1 73 -2 72 2203 0 2202 0 0 -75z m-70 -225
l0 -60 -2132 2 -2133 3 -3 58 -3 57 2136 0 2135 0 0 -60z m-3590 -185 l0 -55
-320 0 -320 0 0 55 0 55 320 0 320 0 0 -55z m3540 0 l0 -55 -320 0 -320 0 0
48 c0 27 3 52 7 55 3 4 147 7 320 7 l313 0 0 -55z m-4050 -2050 l0 -1915 -50
0 -50 0 0 1915 0 1915 50 0 50 0 0 -1915z m240 0 l0 -1915 -60 0 -60 0 0 1915
0 1915 60 0 60 0 0 -1915z m220 0 l0 -1915 -50 0 -50 0 0 1915 0 1915 50 0 50
0 0 -1915z m3090 0 l0 -1915 -50 0 -50 0 0 1915 0 1915 50 0 50 0 0 -1915z
m255 0 l0 -1910 -67 -3 -68 -3 0 1916 0 1916 68 -3 67 -3 0 -1910z m205 0 l0
-1915 -45 0 -45 0 0 1915 0 1915 45 0 45 0 0 -1915z m-670 1025 l0 -210 -260
0 -260 0 0 165 c0 259 -6 254 303 255 l217 0 0 -210z m-2 -547 l2 -213 -515 0
-515 0 0 161 c0 205 11 232 99 260 14 4 229 7 476 6 l450 -2 3 -212z m2 -548
l0 -215 -741 0 -740 0 3 169 c3 153 5 172 24 198 48 65 18 63 772 63 l682 0 0
-215z m0 -550 l0 -215 -955 0 -955 0 0 163 c0 185 10 219 70 249 33 17 98 18
938 18 l902 0 0 -215z m0 -550 l0 -215 -1156 0 -1155 0 3 179 c3 176 4 180 28
206 14 15 34 31 45 35 11 5 518 9 1128 9 l1107 1 0 -215z m-2 -547 l-3 -213
-1335 0 -1335 0 -3 157 c-3 179 6 215 60 248 33 20 47 20 1326 20 l1292 0 -2
-212z m-2840 -355 l3 -83 -316 0 -315 0 0 85 0 85 313 -2 312 -3 3 -82z m3550
0 l3 -83 -316 0 -315 0 0 85 0 85 313 -2 312 -3 3 -82z m57 -413 l0 -65 -2137
-3 -2138 -2 0 70 0 70 2138 -2 2137 -3 0 -65z"/>
<path d="M609 3324 c-19 -23 8 -43 84 -60 80 -19 116 -50 119 -103 0 -20 0
-313 -1 -651 -3 -559 -5 -619 -20 -655 -21 -47 -43 -60 -137 -83 -58 -14 -70
-21 -72 -39 -2 -13 0 -24 5 -24 4 -1 160 -3 346 -4 285 -2 339 0 349 13 17 20
-10 38 -78 52 -72 15 -142 64 -171 119 -22 43 -23 52 -23 312 0 147 4 270 9
273 5 3 225 3 490 -1 l482 -6 -3 -293 c-3 -279 -4 -294 -24 -321 -25 -34 -79
-72 -113 -79 -79 -18 -103 -27 -108 -40 -13 -35 12 -37 328 -39 329 -1 364 3
328 40 -9 9 -45 23 -81 31 -36 8 -75 24 -86 35 -43 39 -45 71 -40 729 4 559 7
628 22 657 18 36 52 57 106 67 60 12 90 27 90 47 0 10 -4 20 -8 23 -5 3 -148
6 -320 8 -242 2 -314 0 -324 -10 -19 -19 1 -44 43 -55 19 -4 51 -13 72 -18 58
-15 104 -61 115 -117 6 -28 8 -150 5 -304 l-6 -258 -477 0 c-411 0 -479 2
-490 15 -9 11 -11 77 -5 289 7 243 10 278 26 305 25 41 71 68 139 82 67 14 90
25 90 44 0 30 -40 34 -343 34 -261 0 -307 -2 -318 -15z"/>
<path d="M2808 3330 c-13 -3 -24 -13 -26 -23 -4 -19 32 -38 122 -62 32 -9 69
-27 81 -39 46 -46 47 -70 40 -713 -9 -675 -5 -647 -81 -690 -21 -12 -71 -29
-110 -38 -77 -17 -106 -37 -85 -58 13 -13 722 -19 744 -5 26 16 -10 42 -92 63
-86 23 -121 43 -155 89 -21 27 -21 34 -18 654 3 523 6 632 18 658 18 38 73 70
145 85 62 13 99 33 99 54 0 8 -10 17 -22 20 -32 7 -632 11 -660 5z"/>
<path d="M4477 3334 c-4 -4 -151 -8 -327 -9 -238 -1 -323 -4 -332 -13 -23 -23
6 -45 83 -64 85 -21 117 -41 142 -89 16 -32 17 -77 15 -659 -3 -580 -4 -627
-21 -658 -24 -44 -67 -68 -154 -88 -76 -17 -95 -34 -61 -58 18 -13 59 -14 257
-9 130 3 319 1 421 -5 218 -12 319 -4 437 37 135 47 226 104 333 211 111 111
174 210 222 350 31 92 32 100 33 260 0 183 -10 240 -68 365 -98 212 -312 360
-597 411 -98 17 -371 30 -383 18z m278 -94 c135 -35 218 -82 320 -185 104
-103 160 -202 196 -340 26 -101 29 -295 6 -402 -80 -372 -376 -590 -740 -545
-147 18 -204 42 -251 105 -21 28 -21 38 -24 640 -2 404 1 624 7 648 22 76 83
97 277 98 100 1 149 -4 209 -19z"/>
<path d="M6405 3320 c-60 -5 -196 -6 -300 -3 -170 5 -193 4 -208 -11 -9 -9
-14 -23 -11 -31 6 -14 62 -35 94 -35 8 0 39 -11 68 -25 87 -40 83 -2 80 -723
-3 -688 -1 -665 -64 -707 -17 -12 -58 -27 -90 -34 -93 -20 -95 -21 -92 -44 4
-30 49 -37 187 -28 64 4 258 3 432 -3 284 -9 325 -8 404 8 164 32 301 104 427
224 203 194 296 447 267 729 -36 353 -256 583 -634 665 -105 22 -383 31 -560
18z m429 -90 c249 -63 437 -255 508 -517 15 -59 21 -110 22 -208 1 -164 -18
-255 -84 -391 -123 -256 -372 -388 -666 -356 -155 18 -232 54 -265 126 -17 38
-19 77 -19 636 0 367 4 609 10 631 22 79 75 98 271 99 113 0 163 -4 223 -20z"/>
<path d="M8010 3298 c-42 -15 -8 -52 64 -68 69 -15 107 -34 136 -65 l25 -27 0
-643 c0 -634 0 -644 -21 -671 -34 -46 -68 -66 -155 -88 -61 -15 -85 -26 -87
-38 -6 -33 41 -40 200 -29 100 7 246 7 450 0 167 -6 350 -9 408 -7 l105 3 38
114 c21 63 41 143 44 178 6 62 5 63 -18 63 -20 0 -32 -13 -63 -66 -52 -91
-108 -149 -164 -171 -40 -15 -78 -18 -247 -18 -299 0 -285 -19 -285 389 0 245
2 287 16 300 13 13 44 16 179 16 193 0 200 -3 237 -109 23 -65 49 -94 67 -76
5 6 11 103 12 218 2 172 0 210 -12 218 -27 17 -37 6 -78 -94 -29 -69 -55 -77
-239 -77 -132 0 -151 2 -165 18 -15 16 -17 52 -17 300 l0 282 29 32 29 33 214
0 c201 0 215 -1 255 -22 54 -29 80 -64 99 -132 16 -55 30 -81 43 -81 25 1 34
22 32 77 -2 80 -31 234 -45 238 -22 7 -1066 10 -1086 3z"/>
<path d="M9521 3296 c-21 -25 -5 -45 56 -72 124 -54 144 -65 182 -99 72 -65
75 -84 68 -428 -7 -309 -29 -675 -48 -781 -20 -113 -57 -158 -156 -190 -59
-20 -80 -38 -61 -53 23 -18 53 -20 169 -13 65 5 170 3 246 -3 100 -8 138 -8
158 1 44 20 28 45 -43 64 -82 22 -126 50 -148 96 -18 34 -19 64 -17 387 1 193
5 428 9 523 7 186 13 204 56 166 11 -11 223 -262 470 -559 247 -297 472 -566
500 -598 76 -87 190 -144 214 -106 4 7 9 335 11 731 3 526 7 729 16 756 15 46
61 77 135 93 31 6 65 15 75 20 25 14 22 47 -6 54 -32 8 -538 -1 -559 -10 -40
-16 -3 -46 79 -65 29 -6 70 -24 91 -40 72 -52 70 -32 63 -622 -4 -357 -9 -531
-17 -538 -6 -6 -18 -8 -27 -4 -16 6 -634 758 -916 1114 -68 85 -130 160 -139
166 -11 8 -98 14 -233 19 -189 6 -217 5 -228 -9z"/>
<path d="M5254 1009 c-61 -14 -144 -68 -181 -117 -93 -123 -77 -325 34 -423
66 -57 137 -83 229 -83 72 0 89 4 147 32 71 35 113 78 150 152 17 36 22 63 22
130 0 73 -4 93 -28 142 -32 66 -80 112 -153 145 -59 27 -158 37 -220 22z m174
-51 c24 -6 62 -28 89 -51 154 -137 111 -389 -80 -462 -59 -22 -175 -17 -231
10 -95 46 -148 134 -148 247 0 139 89 246 221 267 49 8 82 6 149 -11z"/>
<path d="M4250 700 l0 -310 25 0 25 0 0 145 0 145 200 0 c110 0 203 1 208 3 4
1 8 -64 10 -145 2 -140 4 -148 22 -148 19 0 20 8 20 310 0 303 0 310 -20 310
-19 0 -20 -7 -20 -140 l0 -140 -210 0 -210 0 0 140 0 140 -25 0 -25 0 0 -310z"/>
<path d="M5790 990 c0 -19 7 -20 115 -20 l115 0 0 -290 c0 -283 0 -290 20
-290 20 0 20 7 20 290 l0 290 115 0 c108 0 115 1 115 20 0 19 -7 20 -250 20
-243 0 -250 -1 -250 -20z"/>
<path d="M6490 700 l0 -310 215 0 c208 0 215 1 215 20 0 19 -7 20 -195 20
l-196 0 3 125 3 126 165 2 c158 2 165 3 165 22 0 19 -8 20 -167 23 l-168 2 0
120 0 120 190 0 c183 0 190 1 190 20 0 19 -7 20 -210 20 l-210 0 0 -310z"/>
<path d="M7180 700 l0 -310 200 0 c193 0 200 1 200 20 0 19 -7 20 -180 20
l-180 0 0 290 c0 283 0 290 -20 290 -20 0 -20 -7 -20 -310z"/>
</g>
</svg>
