<?xml version="1.0" standalone="no"?>
<!DOCTYPE svg PUBLIC "-//W3C//DTD SVG 20010904//EN"
 "http://www.w3.org/TR/2001/REC-SVG-20010904/DTD/svg10.dtd">
<svg version="1.0" xmlns="http://www.w3.org/2000/svg"
 width="128.000000pt" height="128.000000pt" viewBox="0 0 128.000000 128.000000"
 preserveAspectRatio="xMidYMid meet">

<g transform="translate(0.000000,128.000000) scale(0.100000,-0.100000)"
fill="#201767" stroke="none">
<path d="M92 1251 c-17 -18 -32 -45 -35 -68 -10 -60 -8 -833 3 -878 5 -22 21
-50 35 -62 26 -23 28 -23 364 -23 326 0 339 1 364 20 35 28 47 76 47 186 0
117 7 127 93 132 60 4 68 2 92 -22 23 -23 26 -32 23 -89 -3 -55 -5 -62 -25
-65 -36 -5 -71 -49 -79 -98 -10 -66 0 -205 16 -231 21 -32 57 -48 110 -48 100
0 130 43 130 190 0 131 -16 164 -92 189 -15 4 -18 18 -18 76 0 63 -3 73 -29
102 -25 28 -35 32 -94 36 -141 9 -170 -22 -175 -188 -3 -86 -8 -119 -20 -132
-14 -16 -43 -18 -342 -18 -304 0 -328 1 -343 18 -15 17 -17 59 -17 405 l0 387
490 0 490 0 0 -215 c0 -208 1 -215 20 -215 20 0 20 7 20 286 l0 286 -34 34
-34 34 -465 0 -465 0 -30 -29z m965 -33 c17 -16 23 -32 23 -65 l0 -43 -490 0
-490 0 0 45 c0 32 6 51 20 65 19 19 33 20 467 20 445 0 447 0 470 -22z m23
-908 c0 -27 -3 -30 -30 -30 -34 0 -40 19 -14 44 25 26 44 20 44 -14z m84 14
c26 -25 20 -44 -14 -44 -27 0 -30 3 -30 30 0 34 19 40 44 14z m24 -134 c4 -58
-5 -106 -24 -125 -21 -20 -107 -20 -128 1 -12 11 -16 36 -16 95 l0 80 83 -3
82 -3 3 -45z"/>
<path d="M162 1178 c5 -34 38 -37 38 -4 0 20 -5 26 -21 26 -15 0 -20 -5 -17
-22z"/>
<path d="M250 1175 c0 -18 5 -25 20 -25 15 0 20 7 20 25 0 18 -5 25 -20 25
-15 0 -20 -7 -20 -25z"/>
<path d="M332 1178 c4 -30 43 -33 43 -3 0 13 -8 21 -23 23 -20 3 -23 0 -20
-20z"/>
<path d="M505 921 c-83 -38 -125 -103 -125 -193 1 -123 88 -210 211 -210 86 1
153 46 189 124 79 175 -102 358 -275 279z m151 -40 c54 -24 92 -76 100 -134
18 -128 -123 -227 -243 -171 -102 49 -124 192 -40 274 52 51 116 61 183 31z"/>
<path d="M570 845 c0 -7 -6 -18 -13 -22 -47 -28 -36 -95 19 -113 19 -6 34 -18
34 -26 0 -16 -36 -19 -45 -4 -10 17 -35 11 -35 -7 1 -37 80 -99 80 -63 0 6 9
19 20 30 36 36 21 91 -30 108 -16 6 -30 18 -30 26 0 18 25 22 35 6 9 -15 45
-12 45 3 0 8 -9 22 -20 32 -11 10 -20 24 -20 32 0 7 -9 13 -20 13 -11 0 -20
-7 -20 -15z"/>
<path d="M460 730 c0 -13 7 -20 20 -20 13 0 20 7 20 20 0 13 -7 20 -20 20 -13
0 -20 -7 -20 -20z"/>
<path d="M670 730 c0 -15 7 -20 25 -20 18 0 25 5 25 20 0 15 -7 20 -25 20 -18
0 -25 -5 -25 -20z"/>
</g>
</svg>
