<?xml version="1.0" standalone="no"?>
<!DOCTYPE svg PUBLIC "-//W3C//DTD SVG 20010904//EN"
 "http://www.w3.org/TR/2001/REC-SVG-20010904/DTD/svg10.dtd">
<svg version="1.0" xmlns="http://www.w3.org/2000/svg"
 width="128.000000pt" height="128.000000pt" viewBox="0 0 128.000000 128.000000"
 preserveAspectRatio="xMidYMid meet">

<g transform="translate(0.000000,128.000000) scale(0.100000,-0.100000)"
fill="#201767" stroke="none">
<path d="M560 1026 l-255 -255 -48 11 c-97 23 -191 -25 -234 -120 -21 -44 -24
-64 -20 -104 16 -134 137 -218 266 -184 48 12 53 12 65 -6 12 -17 11 -24 -10
-55 -30 -44 -32 -105 -5 -149 10 -17 54 -60 97 -95 l79 -64 363 -3 363 -3 29
30 30 29 0 177 0 177 -30 29 -29 30 -364 -3 -363 -3 -51 -42 c-57 -48 -69 -52
-78 -23 -4 14 2 30 19 50 37 44 50 123 31 185 l-15 50 129 129 130 130 40 -37
c54 -49 88 -49 130 -2 17 20 31 45 31 56 0 11 -18 39 -40 63 -35 38 -38 45
-25 56 12 10 22 6 55 -24 52 -47 85 -47 128 -3 18 19 32 43 32 57 0 35 -135
170 -169 170 -19 0 -84 -59 -281 -254z m350 149 l64 -65 -24 -25 c-13 -14 -29
-25 -35 -25 -6 0 -29 18 -50 40 -21 22 -45 40 -51 40 -21 0 -74 -51 -74 -71 0
-11 19 -40 42 -64 l41 -46 -23 -24 c-13 -14 -28 -25 -33 -25 -5 0 -29 18 -53
40 -24 22 -49 40 -55 40 -14 0 -275 -255 -290 -283 -6 -11 -6 -37 2 -75 14
-66 7 -121 -21 -154 -15 -18 -21 -20 -31 -11 -10 10 -9 20 4 48 48 101 -18
195 -128 183 -67 -8 -97 -40 -103 -112 -4 -55 -3 -57 37 -97 41 -41 42 -42 95
-35 45 5 55 3 60 -10 9 -24 3 -27 -58 -32 -43 -3 -62 0 -93 17 -175 99 -69
358 127 311 33 -8 54 -8 67 -1 10 5 128 120 263 255 135 135 247 246 250 246
3 0 34 -29 70 -65z m-640 -540 c51 -55 18 -139 -55 -139 -76 0 -112 84 -59
138 35 35 82 35 114 1z m952 -222 c16 -14 18 -34 18 -179 0 -161 0 -164 -24
-179 -20 -14 -69 -15 -363 -13 l-339 3 -79 65 c-91 76 -105 106 -80 167 15 35
17 37 28 18 6 -11 10 -37 8 -57 -2 -30 2 -40 23 -53 33 -22 73 -13 88 20 16
34 2 74 -30 86 -73 29 -77 43 -21 84 77 57 61 55 418 55 297 0 336 -2 353 -17z
m-752 -179 c0 -8 -9 -14 -20 -14 -19 0 -27 19 -14 33 10 9 34 -4 34 -19z"/>
<path d="M660 320 c-36 -36 -27 -59 40 -110 19 -14 22 -21 14 -30 -9 -9 -16
-6 -27 10 -10 14 -22 20 -31 17 -39 -15 6 -81 51 -75 33 4 67 48 59 75 -4 11
-22 29 -41 39 -20 10 -35 26 -35 36 0 24 17 23 32 -2 24 -38 58 -18 37 22 -23
44 -66 51 -99 18z"/>
<path d="M822 328 c-18 -18 -16 -172 2 -187 21 -17 91 -10 91 9 0 10 -12 16
-32 18 -25 2 -33 8 -33 23 0 13 7 19 24 19 31 0 50 22 34 38 -7 7 -22 12 -35
12 -16 0 -23 6 -23 19 0 15 8 21 33 23 20 2 32 8 32 18 0 19 -75 26 -93 8z"/>
<path d="M981 314 c-32 -40 -29 -126 4 -159 31 -32 69 -32 100 0 21 20 25 34
25 80 0 46 -4 60 -25 80 -33 34 -77 33 -104 -1z m79 -33 c26 -49 -1 -127 -37
-105 -22 13 -30 88 -12 110 16 20 36 18 49 -5z"/>
</g>
</svg>
