<?xml version="1.0" standalone="no"?>
<!DOCTYPE svg PUBLIC "-//W3C//DTD SVG 20010904//EN"
 "http://www.w3.org/TR/2001/REC-SVG-20010904/DTD/svg10.dtd">
<svg version="1.0" xmlns="http://www.w3.org/2000/svg"
 width="100px" height="100px" viewBox="0 0 1200.000000 1200.000000"
 preserveAspectRatio="xMidYMid meet">

<g transform="translate(0.000000,1200.000000) scale(0.100000,-0.100000)"
fill="#000000" stroke="none">
<path d="M2076 9414 c-9 -8 -16 -26 -16 -38 0 -37 30 -56 87 -56 124 0 312
-50 432 -116 83 -45 114 -73 51 -45 -64 28 -187 51 -270 51 -75 0 -110 -19
-110 -58 0 -37 32 -52 111 -52 41 0 104 -7 142 -15 67 -14 179 -66 227 -106
l25 -21 -25 7 c-14 3 -68 9 -120 11 -113 6 -143 -5 -148 -52 -5 -47 15 -56
125 -58 72 -2 112 -8 150 -23 62 -25 144 -83 167 -118 17 -25 16 -25 -51 8
-325 164 -672 155 -978 -25 -124 -73 -274 -197 -301 -250 -14 -27 -14 -32 1
-54 28 -43 59 -32 151 55 132 125 274 209 425 251 97 27 128 25 59 -3 -133
-55 -320 -221 -320 -284 0 -24 30 -53 54 -53 9 0 56 40 104 88 71 72 103 97
172 131 71 34 217 78 227 67 2 -1 -18 -17 -45 -34 -78 -51 -172 -161 -172
-203 0 -26 28 -49 60 -49 23 0 35 9 59 43 43 64 105 115 180 151 63 30 71 31
186 30 79 0 133 -6 158 -15 l38 -15 -98 -27 c-179 -51 -327 -142 -430 -266
-64 -78 -144 -235 -173 -342 -24 -89 -41 -254 -30 -285 15 -38 59 -45 90 -14
16 16 20 33 20 85 0 116 54 312 104 381 12 16 12 11 1 -33 -19 -71 -27 -181
-17 -223 10 -42 45 -64 76 -48 32 17 37 29 30 83 -10 85 36 251 87 318 12 15
14 3 14 -89 0 -93 2 -107 19 -120 25 -18 47 -18 70 -1 16 12 19 29 20 113 1
84 5 107 27 154 33 69 97 134 171 171 31 16 61 29 66 29 4 0 3 -39 -4 -87 -20
-137 -18 -151 16 -183 l30 -28 0 -1240 c0 -1355 -4 -1272 55 -1272 58 0 55
-69 55 1287 0 1232 0 1242 20 1248 34 11 38 74 14 238 l-7 48 50 -19 c108 -41
194 -125 228 -221 9 -27 15 -79 15 -131 0 -71 3 -90 18 -103 24 -22 55 -22 75
1 20 23 30 115 19 175 -5 26 -6 47 -2 47 13 0 78 -143 89 -198 6 -29 11 -86
11 -126 0 -47 5 -77 13 -83 26 -21 46 -21 71 -2 24 19 26 27 26 97 0 42 -7
106 -15 141 -9 35 -14 66 -12 68 8 7 70 -144 87 -214 11 -39 22 -111 26 -160
7 -94 21 -123 59 -123 12 0 30 9 40 20 16 17 17 31 12 103 -32 417 -281 720
-667 813 l-75 18 55 17 c70 22 209 24 277 4 74 -22 166 -88 219 -156 37 -48
51 -59 74 -59 20 0 35 8 45 24 15 22 15 27 -1 58 -28 55 -81 113 -144 159 -33
23 -58 44 -57 46 2 1 32 -4 67 -11 136 -29 275 -113 356 -216 51 -66 79 -75
114 -40 28 28 25 41 -19 97 -63 81 -151 152 -245 199 -96 48 -90 55 19 24 152
-43 303 -133 431 -255 81 -77 109 -89 138 -59 32 31 19 58 -66 140 -139 133
-322 239 -493 284 -100 27 -283 37 -383 21 -94 -15 -239 -61 -324 -105 -38
-19 -68 -31 -68 -26 0 15 89 89 137 113 63 33 160 51 227 44 83 -8 122 34 82
89 -13 17 -27 19 -113 19 -54 0 -114 -4 -133 -8 l-35 -9 30 26 c82 69 230 116
366 116 45 0 80 5 87 12 18 18 14 63 -8 83 -32 29 -202 16 -317 -24 -105 -36
-87 -18 52 49 110 54 229 87 345 96 106 8 119 11 132 39 9 19 7 29 -6 50 -15
23 -22 25 -90 25 -41 0 -110 -7 -153 -15 -343 -65 -606 -273 -727 -574 l-17
-44 -33 75 c-95 219 -286 398 -521 489 -158 62 -392 91 -429 53z"/>
<path d="M8006 9414 c-23 -22 -20 -60 6 -78 13 -9 43 -16 69 -16 120 0 309
-51 428 -116 83 -45 114 -73 51 -45 -64 28 -187 51 -270 51 -75 0 -110 -19
-110 -58 0 -37 32 -52 111 -52 41 0 104 -7 140 -14 68 -15 185 -69 229 -106
l25 -22 -25 7 c-14 3 -68 9 -120 11 -113 6 -143 -5 -148 -52 -5 -47 15 -56
125 -58 71 -2 112 -8 149 -23 66 -26 137 -75 165 -114 l21 -30 -68 34 c-401
201 -816 142 -1176 -168 -99 -85 -123 -120 -105 -155 8 -16 23 -26 40 -28 23
-3 42 10 112 76 133 126 275 210 426 252 97 27 128 25 59 -3 -97 -40 -196
-114 -272 -205 -51 -61 -59 -89 -30 -115 27 -25 59 -21 84 11 66 81 152 153
231 192 69 34 214 77 224 66 2 -2 -18 -17 -44 -34 -79 -51 -173 -161 -173
-203 0 -26 28 -49 60 -49 23 0 35 9 59 43 43 64 105 115 180 151 63 30 71 31
186 30 79 0 133 -6 158 -15 l38 -15 -98 -27 c-252 -71 -425 -211 -534 -432
-60 -124 -89 -230 -96 -360 -5 -87 -3 -103 11 -118 23 -22 51 -22 74 1 15 15
20 40 25 118 3 67 14 127 32 184 24 76 70 180 79 180 2 0 -3 -22 -10 -50 -18
-69 -26 -178 -16 -220 10 -43 44 -63 78 -48 29 13 26 3 29 113 3 99 26 187 69
260 15 25 28 45 29 45 1 0 2 -48 2 -106 0 -93 2 -107 19 -120 26 -18 60 -18
76 1 8 10 13 51 14 113 1 84 5 104 29 153 32 66 104 137 175 173 28 14 55 26
60 26 4 0 3 -39 -4 -87 -20 -137 -18 -151 16 -183 l30 -28 0 -1240 c0 -1355
-4 -1272 55 -1272 58 0 55 -69 55 1287 0 758 4 1243 9 1243 38 0 51 78 32 195
-10 58 3 95 32 95 39 0 152 -64 203 -114 69 -70 94 -137 94 -255 0 -72 3 -91
18 -104 24 -22 55 -21 75 1 21 24 32 124 19 180 -5 23 -7 42 -3 42 10 0 57
-86 77 -142 9 -23 19 -92 23 -153 6 -103 7 -110 30 -122 25 -12 57 -3 73 21
13 20 8 170 -7 230 -9 33 -14 61 -12 63 2 2 18 -27 35 -65 42 -90 71 -205 78
-311 7 -92 21 -121 59 -121 53 0 65 50 44 196 -35 255 -172 486 -362 614 -98
65 -294 140 -369 140 -47 0 -31 16 28 29 78 18 179 17 245 -3 79 -22 171 -87
225 -157 37 -48 51 -59 74 -59 38 0 65 37 51 71 -16 43 -88 124 -150 169 -33
24 -59 45 -58 47 7 7 140 -28 191 -51 81 -36 177 -107 222 -164 21 -26 45 -53
53 -59 25 -21 59 -15 78 13 16 25 16 28 -2 61 -35 65 -168 178 -267 228 -98
49 -93 56 17 25 152 -43 303 -133 431 -255 81 -77 109 -89 138 -59 30 30 19
58 -51 127 -97 96 -192 162 -318 223 -170 82 -247 99 -440 98 -145 0 -169 -3
-250 -28 -49 -15 -110 -36 -134 -47 -24 -10 -46 -17 -48 -15 -9 9 80 66 136
87 42 17 81 23 154 24 110 3 130 12 125 59 -5 47 -35 58 -148 52 -52 -2 -106
-7 -120 -11 l-25 -7 25 22 c79 66 207 110 343 117 101 5 110 8 124 30 15 22
15 26 -4 51 -17 23 -29 27 -79 30 -73 4 -192 -14 -258 -39 -28 -10 -52 -17
-54 -15 -2 2 16 16 40 30 128 75 281 122 432 133 94 7 126 22 126 61 0 53 -98
67 -257 37 -215 -41 -393 -135 -534 -281 -102 -108 -164 -211 -212 -353 l-24
-69 -22 70 c-104 322 -374 556 -726 629 -114 24 -237 25 -259 3z"/>
<path d="M6298 8640 c-260 -41 -489 -210 -603 -445 -57 -118 -74 -186 -82
-322 l-6 -113 -333 0 -334 0 -183 -172 c-100 -95 -403 -380 -672 -632 -270
-253 -496 -466 -502 -475 -16 -19 -17 -63 -1 -79 17 -17 63 -15 78 3 7 8 16
15 21 15 5 0 9 -166 9 -374 0 -327 2 -377 16 -390 14 -14 235 -16 2283 -16
2184 0 2269 1 2284 18 15 17 17 57 17 366 l0 347 22 -15 c44 -31 88 -9 88 43
0 25 -57 73 -506 431 -279 222 -566 450 -639 507 l-133 103 34 77 c44 103 64
203 64 322 0 119 -13 193 -51 292 -92 239 -311 431 -560 493 -82 20 -235 28
-311 16z m291 -126 c79 -20 206 -85 270 -137 104 -87 177 -195 223 -332 20
-60 23 -90 23 -205 0 -89 -5 -149 -14 -175 -37 -107 -53 -145 -63 -145 -7 0
-125 89 -297 224 -10 8 -170 13 -510 16 l-496 5 1 96 c2 113 26 206 82 314 44
84 169 213 254 263 157 92 352 120 527 76z m-1409 -878 c-8 -8 -114 -98 -234
-200 l-219 -186 -81 0 -81 0 40 40 c22 21 117 111 210 199 l170 160 105 1 c90
0 102 -2 90 -14z m320 -9 c-14 -13 -118 -103 -232 -200 l-208 -177 -80 0 -81
0 233 199 233 200 80 0 80 1 -25 -23z m355 14 c-6 -5 -111 -95 -235 -200
l-225 -191 -79 0 c-64 0 -78 3 -68 13 7 6 111 96 230 199 l217 187 85 0 c50 1
80 -3 75 -8z m275 -20 c-19 -16 -125 -106 -235 -200 l-200 -170 -65 -1 -65 0
35 29 c19 15 125 105 235 199 l200 171 65 1 65 0 -35 -29z m385 20 c-6 -6
-120 -96 -255 -200 l-245 -191 -74 0 -75 0 40 34 c21 18 127 108 234 199 l195
167 95 0 c59 0 90 -4 85 -9z m484 -246 l291 -227 0 -709 0 -709 -215 0 -215 0
0 278 c0 268 -1 279 -22 322 -34 67 -79 93 -153 88 -69 -4 -103 -24 -134 -79
-20 -35 -21 -52 -21 -323 l0 -286 -220 0 -220 0 0 709 0 708 298 232 c163 127
302 229 308 227 6 -2 143 -106 303 -231z m-1904 -547 c206 -161 374 -296 375
-300 0 -5 -49 -8 -109 -8 l-110 0 -328 286 c-180 158 -335 293 -343 300 -12
12 -3 14 64 14 l78 0 373 -292z m358 0 c218 -161 397 -296 397 -300 0 -5 -42
-8 -92 -8 l-93 1 -370 290 c-203 160 -374 295 -379 300 -6 5 20 9 65 9 l76 0
396 -292z m-93 251 c0 -22 -3 -39 -7 -37 -20 8 -92 64 -93 71 0 4 23 7 50 7
l50 0 0 -41z m298 -111 c1 -82 0 -148 -2 -148 -3 0 -46 30 -96 66 l-90 67 0
84 0 84 93 -3 92 -3 3 -147z m317 139 c3 -7 4 -128 3 -269 l-3 -257 -102 75
-103 75 0 195 0 194 100 0 c72 0 102 -4 105 -13z m-1210 -309 l324 -283 1
-392 0 -393 -270 0 -270 0 0 186 0 186 -29 29 c-51 50 -137 36 -170 -28 -7
-13 -11 -88 -11 -197 l0 -176 -270 0 -270 0 0 393 1 392 306 288 c183 171 312
286 320 282 8 -2 160 -132 338 -287z m2995 -24 c190 -152 356 -284 370 -295
25 -18 25 -18 -86 -19 l-111 0 -259 203 -259 203 -5 92 c-3 51 -3 92 0 92 3 0
160 -124 350 -276z m-157 -198 c75 -59 137 -109 137 -112 0 -2 -74 -4 -165 -4
l-165 0 0 137 0 137 28 -25 c15 -14 89 -74 165 -133z m-1625 -503 l-3 -338
-382 -3 -382 -2 -3 340 -3 340 388 0 387 0 -2 -337z m2202 -33 l0 -310 -385 0
-385 0 0 310 0 310 385 0 385 0 0 -310z"/>
<path d="M6395 6925 c-23 -22 -25 -32 -25 -110 l0 -85 75 0 75 0 0 85 c0 78
-2 88 -25 110 -13 14 -36 25 -50 25 -14 0 -37 -11 -50 -25z"/>
<path d="M6642 6927 c-19 -20 -22 -35 -22 -110 l0 -87 76 0 76 0 -4 91 c-3 81
-6 93 -27 110 -32 26 -73 24 -99 -4z"/>
<path d="M6882 6927 c-19 -20 -22 -35 -22 -110 l0 -87 76 0 76 0 -4 91 c-3 81
-6 93 -27 110 -32 26 -73 24 -99 -4z"/>
<path d="M4040 6158 c-17 -18 -20 -35 -20 -110 l0 -89 73 3 72 3 3 81 c2 69 0
84 -18 107 -28 35 -80 37 -110 5z"/>
<path d="M4720 6160 c-17 -17 -20 -33 -20 -110 l0 -91 73 3 72 3 0 86 c0 71
-3 91 -19 108 -25 27 -79 28 -106 1z"/>
<path d="M5394 6159 c-16 -17 -19 -37 -19 -108 l0 -86 73 -3 72 -3 0 91 c0 77
-3 93 -20 110 -27 27 -81 26 -106 -1z"/>
<path d="M5680 6160 c-17 -17 -20 -33 -20 -110 l0 -91 73 3 72 3 3 81 c2 69 0
84 -18 107 -27 34 -80 37 -110 7z"/>
<path d="M7600 6160 c-17 -17 -20 -33 -20 -110 l0 -91 73 3 72 3 0 87 c0 70
-4 90 -19 107 -25 27 -79 28 -106 1z"/>
<path d="M7880 6153 c-18 -23 -20 -38 -18 -107 l3 -81 73 -3 72 -3 0 89 c0 75
-3 92 -20 110 -30 32 -82 30 -110 -5z"/>
<path d="M1210 5274 c0 -34 1 -35 30 -29 63 14 60 47 60 -675 0 -719 3 -686
-59 -674 -30 6 -31 6 -31 -30 l0 -36 230 0 230 0 0 36 c0 36 0 36 -37 30 -66
-11 -65 -15 -61 245 4 213 6 239 26 291 46 116 113 181 186 181 25 0 52 -5 60
-12 30 -25 36 -86 36 -387 0 -335 1 -331 -64 -318 -36 6 -36 6 -36 -30 l0 -36
230 0 230 0 0 35 c0 35 0 35 -42 33 l-43 -3 -5 315 -5 315 -30 60 c-45 90
-109 125 -231 125 -120 0 -220 -51 -283 -146 l-31 -47 0 396 0 397 -180 0
-180 0 0 -36z"/>
<path d="M7480 5274 c0 -34 1 -35 30 -29 63 14 60 47 60 -675 0 -722 3 -689
-60 -675 -29 6 -30 5 -30 -29 l0 -36 230 0 230 0 0 35 0 35 -47 -3 -48 -2 -3
210 c-2 134 1 230 8 265 36 167 148 276 244 236 30 -12 35 -21 45 -66 7 -30
11 -167 11 -339 0 -318 0 -319 -59 -306 -40 9 -49 2 -43 -35 l4 -30 229 0 229
0 0 35 c0 35 0 35 -42 33 l-43 -3 -6 305 c-3 186 -10 321 -17 346 -30 104
-100 155 -222 162 -136 8 -238 -39 -307 -142 l-33 -48 0 396 0 396 -180 0
-180 0 0 -36z"/>
<path d="M709 4858 c-29 -111 -73 -153 -171 -164 -56 -6 -58 -8 -58 -35 0 -29
1 -29 60 -29 l60 0 0 -327 c1 -402 4 -413 108 -464 40 -20 64 -23 152 -24 94
0 110 3 148 25 37 21 92 85 81 94 -2 2 -14 9 -26 15 -21 10 -26 8 -54 -24 -28
-32 -37 -36 -73 -33 -65 5 -66 6 -66 396 l0 342 100 0 100 0 0 30 0 30 -100 0
-100 0 0 105 0 105 -75 0 -74 0 -12 -42z"/>
<path d="M6985 4888 c-2 -7 -9 -31 -15 -53 -29 -96 -69 -130 -164 -141 -53 -6
-56 -8 -56 -35 0 -29 1 -29 60 -29 l60 0 0 -333 c0 -325 1 -334 23 -377 26
-54 70 -85 138 -99 124 -27 235 -4 293 59 20 22 36 44 36 48 0 5 -11 14 -25
20 -23 11 -29 9 -56 -23 -25 -29 -38 -35 -69 -35 -70 0 -70 -2 -70 392 l0 348
100 0 100 0 0 30 0 30 -100 0 -100 0 0 105 0 105 -75 0 c-52 0 -77 -4 -80 -12z"/>
<path d="M2658 4695 c-164 -41 -256 -139 -289 -304 -18 -91 -7 -272 20 -342
43 -112 115 -181 226 -215 67 -21 255 -30 326 -15 83 17 169 62 215 113 64 69
69 83 37 103 -25 17 -27 17 -40 -1 -34 -48 -92 -99 -131 -116 -56 -25 -136
-33 -188 -19 -114 31 -173 120 -190 287 l-7 64 298 0 298 0 -7 83 c-8 107 -29
173 -75 233 -37 50 -118 106 -181 125 -57 18 -247 20 -312 4z m231 -81 c42
-35 63 -109 59 -211 l-3 -78 -153 -3 -153 -3 6 63 c13 127 52 218 105 245 43
22 105 16 139 -13z"/>
<path d="M3953 4695 c-95 -29 -163 -89 -192 -168 -6 -16 -11 -61 -11 -102 0
-60 5 -82 28 -125 45 -87 87 -109 335 -181 97 -28 137 -61 137 -114 0 -87 -60
-131 -169 -123 -86 7 -161 40 -210 93 -35 38 -61 94 -61 133 0 7 -14 12 -35
12 l-35 0 0 -58 c0 -33 -3 -93 -6 -135 l-7 -75 40 5 c26 3 81 -4 154 -22 210
-50 368 -22 460 83 92 105 90 304 -3 388 -39 36 -99 61 -236 99 -102 29 -136
43 -157 65 -39 41 -37 92 4 134 30 30 35 31 114 31 71 0 88 -4 129 -27 49 -30
84 -76 94 -127 5 -26 11 -31 34 -31 25 0 28 3 34 53 3 28 6 79 6 112 l0 60
-48 -3 c-26 -2 -83 6 -129 17 -92 24 -206 26 -270 6z"/>
<path d="M4890 4692 c-120 -31 -199 -94 -246 -196 -36 -78 -47 -148 -42 -271
9 -206 83 -322 247 -387 77 -31 305 -33 394 -4 111 36 196 120 234 230 14 40
18 82 18 196 0 129 -3 152 -24 208 -46 121 -152 206 -291 232 -79 15 -217 11
-290 -8z m236 -71 c64 -39 94 -161 94 -374 -1 -269 -55 -377 -182 -365 -85 9
-128 70 -147 211 -33 238 7 480 86 529 38 23 110 23 149 -1z"/>
<path d="M8928 4694 c-183 -44 -275 -154 -298 -356 -11 -95 2 -227 30 -302 56
-148 200 -226 420 -226 102 0 185 17 251 50 51 27 116 85 136 123 14 27 13 31
-5 49 -20 20 -20 20 -84 -45 -51 -52 -74 -68 -118 -81 -193 -57 -327 50 -347
277 l-6 67 293 0 292 0 -4 98 c-3 87 -8 107 -36 165 -48 97 -134 161 -250 186
-71 15 -203 13 -274 -5z m220 -70 c41 -28 64 -91 70 -186 3 -62 1 -92 -8 -103
-10 -12 -40 -15 -158 -15 l-145 0 7 70 c11 108 33 169 76 212 33 34 43 38 87
38 28 0 58 -7 71 -16z"/>
<path d="M10135 4691 c-46 -21 -111 -88 -131 -137 -8 -19 -17 -34 -21 -34 -3
0 -3 38 1 85 l7 85 -180 0 -181 0 0 -33 c0 -32 2 -33 30 -29 61 9 60 14 60
-368 0 -377 1 -371 -56 -367 -26 2 -29 -1 -32 -30 l-3 -33 260 0 261 0 0 36 0
36 -74 -7 c-102 -9 -100 -14 -93 234 7 267 38 386 122 459 36 32 59 39 83 23
16 -10 17 -31 7 -93 -7 -44 -5 -49 23 -78 25 -25 38 -30 77 -30 54 0 98 22
114 57 15 34 14 109 -3 141 -46 89 -173 128 -271 83z"/>
<path d="M11093 4696 c-76 -25 -135 -72 -196 -156 -18 -25 -18 -24 -13 63 l5
87 -185 0 -185 0 3 -32 c3 -31 5 -33 36 -30 63 7 62 15 62 -368 0 -382 2 -373
-61 -368 -32 3 -34 1 -37 -29 l-3 -33 235 0 236 0 0 36 0 35 -44 -6 c-67 -10
-70 -1 -63 244 4 171 8 217 26 271 40 128 110 201 192 204 54 1 77 -25 89 -99
13 -78 13 -585 0 -605 -6 -9 -25 -15 -52 -15 -41 0 -43 -1 -46 -32 l-3 -33
236 0 236 0 -3 33 c-3 30 -5 32 -39 29 -21 -1 -41 3 -47 11 -7 8 -12 119 -14
328 l-3 315 -26 49 c-18 35 -39 59 -73 79 -42 26 -59 30 -134 33 -54 2 -103
-2 -129 -11z"/>
<path d="M5620 4661 c0 -28 3 -30 43 -33 l42 -3 6 -315 c6 -354 9 -371 75
-436 50 -51 116 -69 213 -61 107 9 177 49 238 133 l33 48 0 -82 0 -82 185 0
185 0 0 35 c0 35 0 35 -44 35 -31 0 -46 5 -50 16 -3 9 -6 186 -6 395 l0 379
-185 0 -185 0 0 -29 c0 -28 2 -30 48 -33 l47 -3 0 -245 c0 -227 -2 -249 -22
-304 -41 -108 -103 -166 -180 -166 -35 0 -46 5 -60 27 -16 24 -18 62 -21 390
l-3 363 -179 0 -180 0 0 -29z"/>
<path d="M3870 3150 l0 -170 120 0 120 0 0 25 c0 25 -1 25 -90 25 l-90 0 0
145 0 145 -30 0 -30 0 0 -170z"/>
<path d="M4190 3197 c0 -149 13 -182 82 -211 87 -36 186 3 208 82 5 20 10 86
10 145 l0 108 -32 -3 -33 -3 -3 -120 c-2 -106 -5 -122 -24 -142 -27 -29 -86
-31 -119 -4 -23 18 -24 27 -27 145 l-4 126 -29 0 -29 0 0 -123z"/>
<path d="M4586 3308 c4 -7 29 -43 56 -80 26 -37 48 -72 48 -77 0 -5 -27 -46
-60 -90 l-60 -81 38 0 c33 0 40 5 71 50 54 79 54 79 102 10 37 -53 46 -60 75
-60 19 0 34 2 34 5 0 3 -27 42 -60 87 l-60 82 23 30 c13 17 40 55 61 84 l38
52 -36 0 c-31 0 -39 -6 -77 -60 -23 -33 -43 -60 -44 -60 -1 0 -21 27 -44 60
-38 54 -46 60 -77 60 -25 0 -33 -4 -28 -12z"/>
<path d="M4979 3313 c-5 -77 5 -251 16 -273 23 -45 63 -64 130 -65 117 0 147
43 153 223 l4 122 -36 0 -36 0 0 -119 c0 -105 -2 -121 -21 -145 -28 -36 -89
-37 -124 -1 -24 23 -25 30 -25 145 l0 120 -30 0 c-16 0 -30 -3 -31 -7z"/>
<path d="M5400 3150 l0 -170 35 0 35 0 0 50 0 50 43 0 c39 0 44 -3 76 -50 30
-44 39 -50 68 -50 37 0 38 -1 -9 64 l-28 38 30 28 c68 63 46 166 -43 199 -16
6 -69 11 -118 11 l-89 0 0 -170z m204 101 c10 -8 16 -29 16 -52 0 -50 -27 -69
-97 -69 l-53 0 0 71 0 71 59 -4 c33 -2 66 -10 75 -17z"/>
<path d="M5750 3315 c0 -4 29 -56 65 -115 59 -99 65 -113 65 -164 0 -56 0 -56
30 -56 30 0 30 0 30 56 0 51 6 65 65 164 36 59 65 111 65 114 0 3 -13 6 -29 6
-26 0 -34 -9 -76 -80 -26 -44 -50 -80 -53 -80 -4 0 -27 35 -52 78 -40 68 -50
77 -78 80 -18 2 -32 0 -32 -3z"/>
<path d="M6282 3311 c2 -5 35 -81 73 -170 l70 -162 34 3 c37 3 39 6 149 266
l31 72 -32 0 c-32 0 -33 -2 -87 -129 -30 -71 -58 -127 -61 -125 -3 2 -30 60
-59 129 l-53 125 -34 0 c-19 0 -33 -4 -31 -9z"/>
<path d="M6710 3150 l0 -170 35 0 35 0 0 170 0 170 -35 0 -35 0 0 -170z"/>
<path d="M6910 3150 l0 -170 120 0 120 0 0 25 c0 25 -1 25 -90 25 l-90 0 0
145 0 145 -30 0 -30 0 0 -170z"/>
<path d="M7240 3150 l0 -170 120 0 120 0 0 25 c0 25 -1 25 -90 25 l-90 0 0
145 0 145 -30 0 -30 0 0 -170z"/>
<path d="M7599 3150 l-77 -170 34 0 c30 0 36 4 50 40 l16 40 85 0 85 0 15 -40
c14 -36 20 -40 50 -40 18 0 33 1 33 3 0 2 -34 77 -75 167 -73 162 -75 165
-107 168 l-33 2 -76 -170z m142 27 l28 -62 -56 -3 c-30 -2 -58 -1 -60 2 -3 3
7 34 23 70 15 36 30 63 33 61 2 -3 17 -33 32 -68z"/>
<path d="M8020 3313 c-51 -20 -79 -78 -60 -127 11 -29 66 -59 132 -71 74 -14
86 -75 17 -89 -33 -6 -105 8 -127 26 -15 13 -19 10 -27 -24 -7 -26 -4 -28 51
-44 105 -30 197 1 210 72 5 27 2 42 -13 62 -18 24 -36 33 -165 77 -25 9 -23
52 3 66 21 11 84 8 126 -6 16 -5 23 -2 28 15 4 13 2 27 -4 33 -12 12 -146 20
-171 10z"/>
</g>
</svg>
